<svg width="56" height="56" viewBox="0 0 56 56" fill="none" xmlns="http://www.w3.org/2000/svg">
<g clip-path="url(#clip0)">
<path d="M7 54.8333C7 55.4773 7.52267 56 8.16667 56H47.8333C48.4773 56 49 55.4773 49 54.8333V3.5C49 2.856 48.4773 2.33333 47.8333 2.33333H37.3333V1.16667C37.3333 0.522667 36.8107 0 36.1667 0H19.8333C19.1893 0 18.6667 0.522667 18.6667 1.16667V2.33333H8.16667C7.52267 2.33333 7 2.856 7 3.5V54.8333ZM21 2.33333H35V4.66667H21V2.33333ZM9.33333 4.66667H18.6667V5.83333C18.6667 6.47733 19.1893 7 19.8333 7H36.1667C36.8107 7 37.3333 6.47733 37.3333 5.83333V4.66667H46.6667V53.6667H9.33333V4.66667Z" fill="#4D565F"/>
<path d="M40.8333 14H15.1667C14.5227 14 14 14.5227 14 15.1667C14 15.8107 14.5227 16.3333 15.1667 16.3333H40.8333C41.4773 16.3333 42 15.8107 42 15.1667C42 14.5227 41.4773 14 40.8333 14Z" fill="#27AE60"/>
<path d="M40.8333 21H15.1667C14.5227 21 14 21.5227 14 22.1667C14 22.8107 14.5227 23.3333 15.1667 23.3333H40.8333C41.4773 23.3333 42 22.8107 42 22.1667C42 21.5227 41.4773 21 40.8333 21Z" fill="#27AE60"/>
<path d="M40.8333 28H15.1667C14.5227 28 14 28.5227 14 29.1667C14 29.8107 14.5227 30.3333 15.1667 30.3333H40.8333C41.4773 30.3333 42 29.8107 42 29.1667C42 28.5227 41.4773 28 40.8333 28Z" fill="#27AE60"/>
<path d="M40.8333 35H15.1667C14.5227 35 14 35.5227 14 36.1667C14 36.8107 14.5227 37.3333 15.1667 37.3333H40.8333C41.4773 37.3333 42 36.8107 42 36.1667C42 35.5227 41.4773 35 40.8333 35Z" fill="#27AE60"/>
<path d="M36.6667 42C34.6449 42 33 43.6449 33 45.6667C33 47.6884 34.6449 49.3333 36.6667 49.3333C38.6884 49.3333 40.3333 47.6884 40.3333 45.6667C40.3333 43.6449 38.6884 42 36.6667 42ZM36.6667 48.7692C34.9563 48.7692 33.5641 47.377 33.5641 45.6667C33.5641 43.9563 34.9563 42.5641 36.6667 42.5641C38.377 42.5641 39.7692 43.9563 39.7692 45.6667C39.7692 47.377 38.377 48.7692 36.6667 48.7692Z" fill="#4D565F" stroke="#27AE60" stroke-width="2"/>
</g>
<defs>
<clipPath id="clip0">
<rect width="56" height="56" fill="white"/>
</clipPath>
</defs>
</svg>
