<svg width="56" height="56" viewBox="0 0 56 56" fill="none" xmlns="http://www.w3.org/2000/svg">
<g clip-path="url(#clip0)">
<path d="M7 54.8333C7 55.4773 7.52267 56 8.16667 56H47.8333C48.4773 56 49 55.4773 49 54.8333V3.5C49 2.856 48.4773 2.33333 47.8333 2.33333H37.3333V1.16667C37.3333 0.522667 36.8107 0 36.1667 0H19.8333C19.1893 0 18.6667 0.522667 18.6667 1.16667V2.33333H8.16667C7.52267 2.33333 7 2.856 7 3.5V54.8333ZM21 2.33333H35V4.66667H21V2.33333ZM9.33333 4.66667H18.6667V5.83333C18.6667 6.47733 19.1893 7 19.8333 7H36.1667C36.8107 7 37.3333 6.47733 37.3333 5.83333V4.66667H46.6667V53.6667H9.33333V4.66667Z" fill="#4D565F"/>
<path d="M40.8333 14H15.1667C14.5227 14 14 14.5227 14 15.1667C14 15.8107 14.5227 16.3333 15.1667 16.3333H40.8333C41.4773 16.3333 42 15.8107 42 15.1667C42 14.5227 41.4773 14 40.8333 14Z" fill="#27AE60"/>
<path d="M40.8333 21H15.1667C14.5227 21 14 21.5227 14 22.1667C14 22.8107 14.5227 23.3333 15.1667 23.3333H40.8333C41.4773 23.3333 42 22.8107 42 22.1667C42 21.5227 41.4773 21 40.8333 21Z" fill="#27AE60"/>
<path d="M40.8333 28H15.1667C14.5227 28 14 28.5227 14 29.1667C14 29.8107 14.5227 30.3333 15.1667 30.3333H40.8333C41.4773 30.3333 42 29.8107 42 29.1667C42 28.5227 41.4773 28 40.8333 28Z" fill="#27AE60"/>
<path d="M40.8333 35H15.1667C14.5227 35 14 35.5227 14 36.1667C14 36.8107 14.5227 37.3333 15.1667 37.3333H40.8333C41.4773 37.3333 42 36.8107 42 36.1667C42 35.5227 41.4773 35 40.8333 35Z" fill="#27AE60"/>
<path d="M40.833 42C39.4563 42 38.7843 43.0733 38.383 43.7127C38.25 43.925 38.0283 44.2797 37.9023 44.3357C37.795 44.282 37.571 43.925 37.438 43.7127C37.039 43.0733 36.3646 42 34.9903 42C33.616 42 32.944 43.0733 32.5426 43.715C32.4096 43.9273 32.1903 44.2797 32.0713 44.3357C31.964 44.282 31.7423 43.9273 31.6116 43.715C31.2103 43.0757 30.5406 42 29.1663 42C28.5223 42 28.002 42.5227 28.002 43.1643C28.002 43.8083 28.527 44.331 29.171 44.331C29.2783 44.3847 29.5 44.7393 29.6306 44.9517C30.032 45.5933 30.7016 46.6667 32.076 46.6667C33.4503 46.6667 34.1223 45.5933 34.5236 44.9517C34.6566 44.7393 34.876 44.387 34.9996 44.331C35.107 44.3847 35.331 44.7417 35.464 44.954C35.863 45.5933 36.535 46.6667 37.9116 46.6667C39.2883 46.6667 39.9603 45.5933 40.3616 44.954C40.4946 44.7417 40.7163 44.3847 40.833 44.3333C41.477 44.3333 41.9996 43.8107 41.9996 43.1667C41.9996 42.5227 41.477 42 40.833 42Z" fill="#27AE60"/>
</g>
<defs>
<clipPath id="clip0">
<rect width="56" height="56" fill="white"/>
</clipPath>
</defs>
</svg>
