<svg width="20" height="20" viewBox="0 0 20 20" fill="none" xmlns="http://www.w3.org/2000/svg">
<path d="M10 20C15.5228 20 20 15.5228 20 10C20 4.47715 15.5228 0 10 0C4.47715 0 0 4.47715 0 10C0 15.5228 4.47715 20 10 20Z" fill="#249052"/>
<path d="M5.95975 8.42319C6.08642 8.51253 6.46775 8.77919 7.10375 9.22319C7.73975 9.66719 8.22708 10.0065 8.56575 10.2412L8.80275 10.4112C8.92342 10.4985 9.02342 10.5692 9.10275 10.6232C9.18209 10.6772 9.27875 10.7375 9.39275 10.8042C9.49413 10.8657 9.60173 10.9163 9.71375 10.9552C9.80346 10.9868 9.89767 11.0036 9.99275 11.0052H10.0038C10.0988 11.0036 10.193 10.9867 10.2828 10.9552C10.3948 10.9163 10.5024 10.8657 10.6038 10.8042C10.7171 10.7375 10.8138 10.6772 10.8938 10.6232C10.9738 10.5692 11.0738 10.4985 11.1938 10.4112L11.4308 10.2412L14.0428 8.42719C14.3099 8.24219 14.5407 8.00966 14.7238 7.74119C14.9009 7.49408 14.9973 7.19824 14.9998 6.89419C14.9979 6.65792 14.9033 6.43184 14.7362 6.26477C14.5691 6.09769 14.343 6.00302 14.1068 6.00119H5.89275C5.76756 5.99435 5.6425 6.01703 5.52769 6.0674C5.41287 6.11778 5.3115 6.19444 5.23175 6.29119C5.07238 6.49887 4.99034 6.75558 4.99975 7.01719C5.01703 7.2977 5.12474 7.56505 5.30675 7.77919C5.48712 8.02865 5.70781 8.2463 5.95975 8.42319Z" fill="white"/>
<path d="M14.4421 9.01918C13.2221 9.84518 12.2958 10.4869 11.6631 10.9442C11.4511 11.1002 11.2791 11.2219 11.1471 11.3092C10.9801 11.4147 10.8037 11.5044 10.6201 11.5772C10.4265 11.6629 10.2178 11.7094 10.0061 11.7142H9.9941C9.78241 11.7094 9.57374 11.6629 9.3801 11.5772C9.19651 11.5044 9.02008 11.4147 8.8531 11.3092C8.71977 11.2219 8.54777 11.1002 8.3371 10.9442C7.8351 10.5762 6.91077 9.93451 5.5641 9.01918C5.35643 8.88191 5.16693 8.71895 5.0001 8.53418V12.9652C4.99829 13.0827 5.0206 13.1993 5.06567 13.3078C5.11073 13.4164 5.17759 13.5145 5.2621 13.5962C5.3438 13.6806 5.44194 13.7475 5.55047 13.7925C5.65899 13.8376 5.77561 13.8599 5.8931 13.8582H14.1071C14.3434 13.8564 14.5695 13.7617 14.7365 13.5946C14.9036 13.4275 14.9983 13.2015 15.0001 12.9652V8.53418C14.8343 8.71769 14.6469 8.88053 14.4421 9.01918Z" fill="white"/>
</svg>
