<svg width="51" height="51" viewBox="0 0 51 51" fill="none" xmlns="http://www.w3.org/2000/svg">
<path d="M43.5625 23.375H45.6875C46.274 23.375 46.75 22.899 46.75 22.3125C46.75 21.726 46.274 21.25 45.6875 21.25H43.5625C42.976 21.25 42.5 21.726 42.5 22.3125C42.5 22.899 42.976 23.375 43.5625 23.375Z" fill="#27AE60"/>
<path d="M3.1875 23.375H5.3125C5.899 23.375 6.375 22.899 6.375 22.3125C6.375 21.726 5.899 21.25 5.3125 21.25H3.1875C2.601 21.25 2.125 21.726 2.125 22.3125C2.125 22.899 2.601 23.375 3.1875 23.375Z" fill="#27AE60"/>
<path d="M24.4375 4.25C25.024 4.25 25.5 3.774 25.5 3.1875V1.0625C25.5 0.476 25.024 0 24.4375 0C23.851 0 23.375 0.476 23.375 1.0625V3.1875C23.375 3.774 23.851 4.25 24.4375 4.25Z" fill="#27AE60"/>
<path d="M38.7111 35.0838C38.2967 34.6694 37.6231 34.6694 37.2087 35.0838C36.7944 35.4981 36.7944 36.1717 37.2087 36.5861L38.7133 38.0906C38.9215 38.2989 39.1935 38.4009 39.4655 38.4009C39.7375 38.4009 40.0095 38.2967 40.2178 38.0906C40.6321 37.6762 40.6321 37.0026 40.2178 36.5883L38.7111 35.0838Z" fill="#27AE60"/>
<path d="M10.1639 9.54125C10.37 9.74738 10.642 9.8515 10.914 9.8515C11.186 9.8515 11.458 9.74738 11.6663 9.54125C12.0806 9.12688 12.0806 8.45325 11.6663 8.03888L10.1618 6.53438C9.74738 6.12 9.07375 6.12 8.65938 6.53438C8.245 6.94875 8.245 7.62238 8.65938 8.03675L10.1639 9.54125Z" fill="#27AE60"/>
<path d="M9.41162 38.4009C9.68362 38.4009 9.95563 38.2967 10.1639 38.0906L11.6684 36.5861C12.0828 36.1717 12.0828 35.4981 11.6684 35.0838C11.254 34.6694 10.5804 34.6694 10.166 35.0838L8.6615 36.5883C8.24713 37.0026 8.24713 37.6762 8.6615 38.0906C8.86763 38.2967 9.13962 38.4009 9.41162 38.4009Z" fill="#27AE60"/>
<path d="M37.961 9.8515C38.233 9.8515 38.505 9.74738 38.7133 9.54125L40.2178 8.03675C40.6321 7.62238 40.6321 6.94875 40.2178 6.53438C39.8034 6.12 39.1298 6.12 38.7154 6.53438L37.2087 8.03888C36.7944 8.45325 36.7944 9.12688 37.2087 9.54125C37.417 9.74738 37.689 9.8515 37.961 9.8515Z" fill="#27AE60"/>
<path d="M12.886 27.7525C15.6166 31.9005 17 36.1441 17 40.3622V41.4375C17 42.024 17.476 42.5 18.0625 42.5H30.8125C31.399 42.5 31.875 42.024 31.875 41.4375C31.875 36.6371 33.3157 31.8771 36.04 27.6717C37.4871 25.4405 38.25 22.8522 38.25 20.1875C38.25 12.0232 31.1334 5.4825 22.7715 6.47275C16.7599 7.17825 11.7236 12.019 10.7971 17.9817C10.2616 21.42 11.0033 24.8901 12.886 27.7525ZM12.8966 18.3069C13.6808 13.2685 17.9371 9.18 23.018 8.58287C30.0964 7.752 36.125 13.2749 36.125 20.1875C36.125 22.4421 35.479 24.6309 34.2593 26.5157C31.5116 30.7572 29.9689 35.5279 29.7734 40.375H19.125V40.3622C19.125 35.7212 17.6226 31.0845 14.6604 26.5837C13.0688 24.1634 12.4419 21.2245 12.8966 18.3069Z" fill="#4D565F"/>
<path d="M19.2525 14.5223C19.4778 14.5223 19.7073 14.45 19.9006 14.3013C20.3193 13.9783 20.7655 13.6999 21.2288 13.4768C21.7579 13.2218 21.9789 12.5864 21.7239 12.0594C21.471 11.5324 20.8335 11.3114 20.3065 11.5642C19.7115 11.8511 19.1377 12.2081 18.6022 12.6225C18.1369 12.9795 18.0519 13.6468 18.411 14.11C18.6192 14.382 18.9338 14.5223 19.2525 14.5223Z" fill="#27AE60"/>
<path d="M15.7569 24.1953C15.9736 24.6585 16.2074 25.0665 16.4369 25.415C16.6409 25.7253 16.9787 25.8931 17.3251 25.8931C17.5249 25.8931 17.7289 25.8358 17.9074 25.7168C18.3982 25.3938 18.5321 24.735 18.2112 24.2463C18.0327 23.9743 17.85 23.6598 17.6821 23.2985C17.5142 22.9415 17.3634 22.542 17.2444 22.1C17.119 21.6304 17.0425 21.1438 17.0127 20.655C16.9787 20.1025 17.0064 19.533 17.0956 18.9635C17.2167 18.1836 17.4717 17.4293 17.85 16.7195C18.1262 16.201 17.9329 15.5571 17.4144 15.2809C16.898 15.0046 16.2562 15.2001 15.9779 15.7165C15.4849 16.6366 15.1555 17.6184 14.9961 18.6363C14.8835 19.3545 14.8495 20.0791 14.892 20.7825C14.9302 21.4115 15.0301 22.0405 15.1916 22.6483C15.3319 23.1774 15.5231 23.698 15.7569 24.1953Z" fill="#27AE60"/>
<path d="M31.875 45.6875C31.875 45.101 31.399 44.625 30.8125 44.625H18.0625C17.476 44.625 17 45.101 17 45.6875C17 46.274 17.476 46.75 18.0625 46.75H30.8125C31.399 46.75 31.875 46.274 31.875 45.6875Z" fill="#4D565F"/>
<path d="M20.1875 48.875C19.601 48.875 19.125 49.351 19.125 49.9375C19.125 50.524 19.601 51 20.1875 51H28.6875C29.274 51 29.75 50.524 29.75 49.9375C29.75 49.351 29.274 48.875 28.6875 48.875H20.1875Z" fill="#4D565F"/>
</svg>
