<svg width="57" height="57" viewBox="0 0 57 57" fill="none" xmlns="http://www.w3.org/2000/svg">
<g clip-path="url(#clip0)">
<path d="M4.92308 42.4839C4.41328 42.4839 4 42.0723 4 41.5645C4 41.0568 4.26753 40.6452 4.77733 40.6452H12.1134C12.6232 40.6452 13.0288 41.0351 13.0288 41.5428C13.0288 42.0506 12.6232 42.4839 12.1134 42.4839H4.92308Z" fill="#4D565F"/>
<path d="M4 41.5645C4 41.0568 4.26753 40.6452 4.77733 40.6452C5.28713 40.6452 5.96935 41.0568 5.96935 41.5645V56.0806C5.96935 56.5884 5.48146 57 4.97166 57C4.46186 57 4 56.5884 4 56.0806V41.5645Z" fill="#4D565F"/>
<path d="M11.1903 41.5428C11.1903 41.0351 11.6036 40.6452 12.1134 40.6452C12.6232 40.6452 13.0288 41.0351 13.0288 41.5428L13.0364 56.0806C13.0364 56.5884 12.6232 57 12.1134 57C11.6036 57 11.1903 56.5884 11.1903 56.0806V41.5428Z" fill="#4D565F"/>
<path d="M4.97166 57C4.46186 57 4 56.5884 4 56.0806C4 55.5729 4.26753 55.1613 4.77733 55.1613H12.1134C12.6232 55.1613 13.0288 55.5512 13.0288 56.059C13.0288 56.5667 12.6232 57 12.1134 57H4.97166Z" fill="#4D565F"/>
<path d="M31.0607 37.8387C30.5509 37.8387 30.1377 37.4271 30.1377 36.9194C30.1377 36.4116 30.4052 36 30.915 36H38.251C38.7608 36 39.1665 36.3899 39.1665 36.8977C39.1665 37.4054 38.7608 37.8387 38.251 37.8387H31.0607Z" fill="#4D565F"/>
<path d="M30.1377 36.9194C30.1377 36.4116 30.4052 36 30.915 36C31.4248 36 32.107 36.4116 32.107 36.9194V56.0806C32.107 56.5884 31.6191 57 31.1093 57C30.5995 57 30.1377 56.5884 30.1377 56.0806V36.9194Z" fill="#4D565F"/>
<path d="M37.3279 36.8977C37.3279 36.3899 37.7412 36 38.251 36C38.7608 36 39.1665 36.3899 39.1665 36.8977L39.1741 56.0806C39.1741 56.5884 38.7608 57 38.251 57C37.7412 57 37.3279 56.5884 37.3279 56.0806V36.8977Z" fill="#4D565F"/>
<path d="M31.1093 57C30.5995 57 30.1377 56.5884 30.1377 56.0806C30.1377 55.5729 30.4052 55.1613 30.915 55.1613H38.251C38.7608 55.1613 39.1665 55.5512 39.1665 56.059C39.1665 56.5667 38.7608 57 38.251 57H31.1093Z" fill="#4D565F"/>
<path d="M43.8866 42.4839C43.3768 42.4839 42.9636 42.0723 42.9636 41.5645C42.9636 41.0568 43.2311 40.6452 43.7409 40.6452H51.0769C51.5867 40.6452 51.9924 41.0351 51.9924 41.5428C51.9924 42.0506 51.5867 42.4839 51.0769 42.4839H43.8866Z" fill="#4D565F"/>
<path d="M42.9636 41.5645C42.9636 41.0568 43.2311 40.6452 43.7409 40.6452C44.2507 40.6452 44.9329 41.0568 44.9329 41.5645V56.0806C44.9329 56.5884 44.445 57 43.9352 57C43.4254 57 42.9636 56.5884 42.9636 56.0806V41.5645Z" fill="#4D565F"/>
<path d="M50.1538 41.5428C50.1538 41.0351 50.5671 40.6452 51.0769 40.6452C51.5867 40.6452 51.9924 41.0351 51.9924 41.5428L52 56.0806C52 56.5884 51.5867 57 51.0769 57C50.5671 57 50.1538 56.5884 50.1538 56.0806V41.5428Z" fill="#4D565F"/>
<path d="M43.9352 57C43.4254 57 42.9636 56.5884 42.9636 56.0806C42.9636 55.5729 43.2311 55.1613 43.7409 55.1613H51.0769C51.5867 55.1613 51.9924 55.5512 51.9924 56.059C51.9924 56.5667 51.5867 57 51.0769 57H43.9352Z" fill="#4D565F"/>
<path d="M12.6942 26.5617C12.3156 26.82 11.7765 26.6893 11.4902 26.2696C11.2038 25.85 11.1704 25.3742 11.549 25.1158L20.4616 19.0342C20.8402 18.7759 21.3615 18.8925 21.6478 19.3122C21.9342 19.7318 21.8772 20.2956 21.4986 20.5539L12.6942 26.5617Z" fill="#4D565F"/>
<path d="M37.0217 18.9098C36.7528 18.7448 36.7502 18.26 37.0159 17.827C37.2817 17.394 37.6382 17.1296 37.9071 17.2946L44.2366 21.1788C44.5055 21.3438 44.5154 21.8077 44.2497 22.2407C43.984 22.6737 43.5432 22.9119 43.2743 22.7469L37.0217 18.9098Z" fill="#4D565F"/>
<path d="M17.8906 31.8791C17.3987 31.8791 17 31.4585 17 30.9396C17 30.4207 17.2581 30 17.75 30H25.1094C25.6013 30 25.9927 30.3985 25.9927 30.9174C25.9927 31.4363 25.6013 31.8791 25.1094 31.8791H17.8906Z" fill="#27AE60"/>
<path d="M24.2188 48.4451C24.2188 47.9262 24.6175 47.5055 25.1094 47.5055C25.6013 47.5055 26 47.9262 26 48.4451L25.9927 56.0383C25.9927 56.5572 25.6013 57 25.1094 57C24.6175 57 24.2188 56.5793 24.2188 56.0604V48.4451Z" fill="#27AE60"/>
<path d="M17 30.9396C17 30.4207 17.2581 30 17.75 30C18.2419 30 18.9001 30.4207 18.9001 30.9396V56.0604C18.9001 56.5793 18.4294 57 17.9375 57C17.4456 57 17 56.5793 17 56.0604V30.9396Z" fill="#27AE60"/>
<path d="M24.2188 30.9174C24.2188 30.3985 24.6175 30 25.1094 30C25.6013 30 25.9927 30.3985 25.9927 30.9174L26 43.4011C26 43.92 25.6013 44.3407 25.1094 44.3407C24.6175 44.3407 24.2188 43.92 24.2188 43.4011V30.9174Z" fill="#27AE60"/>
<path d="M17.9375 57C17.4456 57 17 56.5793 17 56.0604C17 55.5415 17.2581 55.1209 17.75 55.1209H25.1094C25.6013 55.1209 25.9927 55.5194 25.9927 56.0383C25.9927 56.5572 25.6013 57 25.1094 57H17.9375Z" fill="#27AE60"/>
<path d="M28.9178 0C22.4396 0 17.1689 5.2707 17.1689 11.7488C17.1689 18.2269 22.4396 23.4977 28.9178 23.4977C35.3959 23.4977 40.6666 18.2269 40.6666 11.7488C40.6666 5.2707 35.3959 0 28.9178 0ZM28.9178 21.6901C23.4374 21.6901 18.9765 17.2292 18.9765 11.7488C18.9765 6.26845 23.4374 1.80751 28.9178 1.80751C34.3981 1.80751 38.8591 6.26845 38.8591 11.7488C38.8591 17.2292 34.3981 21.6901 28.9178 21.6901Z" fill="#4D565F"/>
<path d="M8.64789 24.0137C6.08511 24.0137 4 26.0988 4 28.6616C4 31.2243 6.08511 33.3094 8.64789 33.3094C11.2107 33.3094 13.2958 31.2243 13.2958 28.6616C13.2958 26.0988 11.2107 24.0137 8.64789 24.0137ZM8.64789 32.5944C6.47983 32.5944 4.71506 30.8296 4.71506 28.6616C4.71506 26.4935 6.47983 24.7287 8.64789 24.7287C10.8159 24.7287 12.5807 26.4935 12.5807 28.6616C12.5807 30.8296 10.8159 32.5944 8.64789 32.5944Z" fill="#4D565F" stroke="#4D565F"/>
<path d="M47.3803 20.1406C44.8175 20.1406 42.7324 22.2257 42.7324 24.7885C42.7324 27.3513 44.8175 29.4364 47.3803 29.4364C49.9431 29.4364 52.0282 27.3513 52.0282 24.7885C52.0282 22.2257 49.9431 20.1406 47.3803 20.1406ZM47.3803 28.7213C45.2122 28.7213 43.4475 26.9566 43.4475 24.7885C43.4475 22.6205 45.2122 20.8557 47.3803 20.8557C49.5484 20.8557 51.3131 22.6205 51.3131 24.7885C51.3131 26.9566 49.5484 28.7213 47.3803 28.7213Z" fill="#4D565F" stroke="#4D565F"/>
<path d="M34.8542 6.14625C34.6592 5.95125 34.3422 5.95125 34.1472 6.14625L23.1472 17.1462C22.9522 17.3412 22.9522 17.6583 23.1472 17.8533C23.2442 17.9513 23.3722 18.0002 23.5002 18.0002C23.6282 18.0002 23.7562 17.9513 23.8542 17.8542L34.8542 6.85425C35.0492 6.65825 35.0492 6.34225 34.8542 6.14625Z" fill="#27AE60"/>
<path d="M23 8.5C23 9.878 24.121 11 25.5 11C26.879 11 28 9.878 28 8.5C28 7.122 26.879 6 25.5 6C24.121 6 23 7.122 23 8.5ZM25.5 7C26.327 7 27 7.673 27 8.5C27 9.327 26.327 10 25.5 10C24.673 10 24 9.327 24 8.5C24 7.673 24.673 7 25.5 7Z" fill="#27AE60"/>
<path d="M35 15.5C35 14.122 33.879 13 32.5 13C31.121 13 30 14.122 30 15.5C30 16.878 31.121 18 32.5 18C33.879 18 35 16.878 35 15.5ZM31 15.5C31 14.673 31.673 14 32.5 14C33.327 14 34 14.673 34 15.5C34 16.327 33.327 17 32.5 17C31.673 17 31 16.327 31 15.5Z" fill="#27AE60"/>
</g>
<defs>
<clipPath id="clip0">
<rect width="57" height="57" fill="white"/>
</clipPath>
</defs>
</svg>
