<svg width="56" height="56" viewBox="0 0 56 56" fill="none" xmlns="http://www.w3.org/2000/svg">
<g clip-path="url(#clip0)">
<path d="M43.3935 41.7934C41.3215 40.3397 38.9135 40.2487 35.9921 41.532L28.0541 45.3167L22.5451 41.8587L30.6255 37.6004C30.9498 37.43 31.1715 37.1174 31.2321 36.758C31.2928 36.3987 31.1808 36.03 30.9265 35.764L30.0211 34.812C27.8908 32.5697 24.6498 32.0237 21.9641 33.447L15.7015 36.744C15.5895 36.5107 15.4145 36.3054 15.1625 36.1864L9.49481 33.489C9.21014 33.3514 8.88115 33.342 8.58948 33.447C8.29315 33.5567 8.05515 33.7807 7.92681 34.0677L0.100811 51.661C-0.155855 52.2397 0.0938112 52.9164 0.665478 53.187L6.33315 55.8867C6.48948 55.9614 6.66214 56.001 6.83481 56.001C6.97248 56.001 7.10781 55.9754 7.23848 55.9287C7.53481 55.819 7.77281 55.595 7.90114 55.308L8.62914 53.6677H30.0748C30.2615 53.6677 30.4458 53.621 30.6115 53.537L46.0115 45.557C46.3801 45.3657 46.6205 44.9924 46.6391 44.5747C46.6601 44.1594 46.4571 43.7627 46.1048 43.541L43.3935 41.7934ZM6.25615 53.2664L2.69781 51.5677L9.57181 36.107L13.1301 37.8034L6.81848 51.9994C6.80448 52.0297 6.79048 52.06 6.77648 52.0927L6.25615 53.2664ZM29.7925 51.3344H9.66748L14.7658 39.8707L23.0515 35.5097C24.7385 34.6137 26.7661 34.917 28.1661 36.2587L16.9148 42.1877C16.3455 42.4864 16.1238 43.1934 16.4248 43.7627C16.6325 44.1594 17.0385 44.388 17.4561 44.388C17.6405 44.388 17.8248 44.3437 17.9975 44.2527L20.1535 43.1164L27.3518 47.6337C27.6901 47.846 28.1101 47.867 28.4718 47.6967L36.9581 43.653C39.0885 42.715 40.6611 42.729 42.0868 43.7277L43.1461 44.4114L29.7925 51.3344Z" fill="#4D565F"/>
<path d="M40.8337 2.33301C32.471 2.33301 25.667 9.13701 25.667 17.4997C25.667 25.8623 32.471 32.6663 40.8337 32.6663C49.1963 32.6663 56.0003 25.8623 56.0003 17.4997C56.0003 9.13701 49.1963 2.33301 40.8337 2.33301ZM40.8337 30.333C33.759 30.333 28.0003 24.5743 28.0003 17.4997C28.0003 10.425 33.759 4.66634 40.8337 4.66634C47.9083 4.66634 53.667 10.425 53.667 17.4997C53.667 24.5743 47.9083 30.333 40.8337 30.333Z" fill="#4D565F"/>
<rect x="34" y="10" width="14.0131" height="2.07601" fill="#249052"/>
<rect x="34" y="12.8545" width="14.0131" height="2.07601" fill="#249052"/>
<rect x="42.8232" y="12.8545" width="12.7156" height="3.63302" transform="rotate(90 42.8232 12.8545)" fill="#249052"/>
</g>
<defs>
<clipPath id="clip0">
<rect width="56" height="56" fill="white"/>
</clipPath>
</defs>
</svg>
