<svg width="60" height="60" viewBox="0 0 60 60" fill="none" xmlns="http://www.w3.org/2000/svg">
<rect width="60" height="60" fill="white"/>
<path d="M3 41.8327V8.08107C3 7.4977 3.50002 6.99768 4.08339 6.99768H55.2525C55.8359 6.99768 56.3359 7.4977 56.3359 8.08107V41.8327H3Z" fill="#2B2F33"/>
<path d="M56.3359 41.8326V46.1662C56.3359 46.7495 55.8359 47.2496 55.2525 47.2496H4.08339C3.50002 47.2496 3 46.7495 3 46.1662V41.8326H56.3359Z" fill="#CFDCE5"/>
<path d="M41.0854 54.9166H18.251V56H41.0854V54.9166Z" fill="#CFDCE5"/>
<path d="M37.2514 54.9167H22.084L23.1674 47.2496H36.168L37.2514 54.9167Z" fill="#AAC1CE"/>
<path d="M36.1682 47.2496H23.1675L22.5625 51.529L36.3632 48.6272L36.1682 47.2496Z" fill="#8BA0AE"/>
<path d="M54.1693 9.16443H5.16699V39.6659H54.1693V9.16443Z" fill="white"/>
<g opacity="0.5">
<path opacity="0.5" d="M50.6605 16.7815H35.8848V20.99H50.6605V16.7815Z" fill="#C7D5DD"/>
</g>
<g opacity="0.5">
<path opacity="0.5" d="M47.6077 23.7751H32.832V27.9837H47.6077V23.7751Z" fill="#C7D5DD"/>
</g>
<g opacity="0.5">
<path opacity="0.5" d="M23.4515 24.5027H8.67578V28.7112H23.4515V24.5027Z" fill="#C7D5DD"/>
</g>
<g opacity="0.5">
<path opacity="0.5" d="M28.0716 32.1597H13.2959V36.3682H28.0716V32.1597Z" fill="#C7D5DD"/>
</g>
<path d="M29.6683 37.4849C38.9149 37.4849 46.4107 29.9891 46.4107 20.7425C46.4107 11.4959 38.9149 4 29.6683 4C20.4216 4 12.9258 11.4959 12.9258 20.7425C12.9258 29.9891 20.4216 37.4849 29.6683 37.4849Z" fill="#7DCEA0"/>
<path d="M23.3843 22.3268C21.3234 22.3268 19.6533 23.9969 19.6533 26.0578C19.6533 28.1187 21.3234 29.7888 23.3843 29.7888C25.4444 29.7888 27.1137 28.1196 27.1153 26.0603H23.3843V22.3268Z" fill="#FFD07D"/>
<path d="M26.025 23.4209L23.3857 26.0602H27.1168C27.1168 26.0594 27.1168 26.0585 27.1168 26.0577C27.1159 25.0276 26.6992 24.0959 26.025 23.4209Z" fill="#FFD07D"/>
<path d="M23.3848 22.3267V26.0602L26.0241 23.4209C25.349 22.745 24.4156 22.3267 23.3848 22.3267Z" fill="#FFD07D"/>
<path d="M26.0241 28.692L23.3848 26.0527H27.1158C27.1158 26.0536 27.1158 26.0544 27.1158 26.0552C27.1149 27.0845 26.6983 28.017 26.0241 28.692Z" fill="#FFD07D"/>
<path d="M23.3848 29.7862V26.0527L26.0241 28.692C25.349 29.3679 24.4156 29.7862 23.3848 29.7862Z" fill="#FFD07D"/>
<path d="M41.8961 24.2485H29.2363V24.6652H41.8961V24.2485Z" fill="white"/>
<path d="M41.8951 25.8486H29.2354V26.2653H41.8951V25.8486Z" fill="white"/>
<path d="M34.3639 27.4561H29.2354V27.8727H34.3639V27.4561Z" fill="white"/>
<path d="M23.3843 12.798C21.3234 12.798 19.6533 14.4681 19.6533 16.529C19.6533 18.5899 21.3234 20.26 23.3843 20.26C25.4444 20.26 27.1137 18.5908 27.1153 16.5315H23.3843V12.798Z" fill="#FFD07D"/>
<path d="M26.0249 13.8921L23.3848 16.5314H27.1158C27.1158 16.5305 27.1158 16.5297 27.1158 16.5289C27.1158 15.4988 26.6991 14.5671 26.0249 13.8921Z" fill="#FFD07D"/>
<path d="M23.3848 12.7979V16.5314L26.0241 13.8921C25.349 13.2162 24.4156 12.7979 23.3848 12.7979Z" fill="#FFD07D"/>
<path d="M26.0249 19.1632L23.3848 16.5231H27.1158C27.1158 16.5239 27.1158 16.5247 27.1158 16.5256C27.1158 17.5556 26.6991 18.4873 26.0249 19.1632Z" fill="#FFD07D"/>
<path d="M23.3848 20.2574V16.5239L26.0241 19.1632C25.349 19.8391 24.4156 20.2574 23.3848 20.2574Z" fill="#FFD07D"/>
<path d="M41.8961 14.7114H29.2363V15.1281H41.8961V14.7114Z" fill="white"/>
<path d="M41.8951 16.3147H29.2354V16.7314H41.8951V16.3147Z" fill="white"/>
<path d="M34.3639 17.9189H29.2354V18.3356H34.3639V17.9189Z" fill="white"/>
</svg>
