<svg width="36" height="48" viewBox="0 0 36 48" fill="none" xmlns="http://www.w3.org/2000/svg">
<path d="M20.6448 20.4788C20.3109 20.2017 19.9255 19.9931 19.5109 19.8651C19.0291 19.764 18.5377 19.7162 18.0455 19.7228H15.8709C15.5845 19.7062 15.301 19.7886 15.0682 19.9561C14.8939 20.1857 14.8108 20.4716 14.8349 20.7588V26.8558C14.8127 27.0812 14.8455 27.3086 14.9305 27.5185C14.9492 27.5978 14.9841 27.6723 15.0331 27.7374C15.0821 27.8024 15.1441 27.8566 15.2152 27.8965C15.4311 28.007 15.6732 28.0562 15.9152 28.0388H18.0898C18.4386 28.0326 18.7865 28.0006 19.1305 27.9432C19.42 27.8875 19.7047 27.8095 19.9822 27.7098C20.2389 27.5925 20.4752 27.435 20.6822 27.2431C20.9549 26.9766 21.1904 26.6744 21.3822 26.3448C21.5799 25.9903 21.7231 25.608 21.8068 25.2108C21.9058 24.7611 21.9535 24.3016 21.9492 23.8411C21.9988 23.2187 21.9073 22.593 21.6815 22.0108C21.4556 21.4287 21.1013 20.905 20.6448 20.4788ZM19.4152 26.3401C19.2841 26.4356 19.1414 26.514 18.9905 26.5735C18.8391 26.6231 18.6826 26.6552 18.5238 26.6691H16.5872V20.9968H17.7212C18.17 20.9797 18.6182 21.0437 19.0442 21.1858C19.2419 21.2489 19.4241 21.3531 19.5789 21.4914C19.7337 21.6297 19.8576 21.7991 19.9425 21.9885C20.2196 22.562 20.3495 23.1955 20.3205 23.8318C20.3563 24.29 20.2943 24.7506 20.1387 25.183C19.983 25.6155 19.7371 26.0099 19.4175 26.3401H19.4152Z" fill="#27AE60"/>
<path d="M35.5735 9.98012L35.5268 9.93346V9.88679L26.5995 0.898791L26.5528 0.852124C26.5405 0.852124 26.5286 0.847208 26.5198 0.838456C26.5111 0.829704 26.5062 0.817834 26.5062 0.805458C26.4938 0.805458 26.4819 0.800541 26.4732 0.791789C26.4644 0.783038 26.4595 0.771168 26.4595 0.758791C26.318 0.678223 26.1546 0.644721 25.9928 0.663124H3.86116C3.0354 0.658152 2.24145 0.981271 1.65383 1.56146L1.60717 1.60812C1.01686 2.2175 0.682796 3.0301 0.673828 3.87846V44.1168C0.673471 44.967 1.00892 45.783 1.60717 46.3871C2.20792 46.9819 3.01586 47.3206 3.86116 47.3321H32.4725C32.8931 47.3317 33.3095 47.248 33.6975 47.0858C34.0856 46.9236 34.4377 46.6861 34.7335 46.3871C35.3238 45.7777 35.6579 44.9651 35.6668 44.1168V10.4538C35.6634 10.2917 35.6318 10.1314 35.5735 9.98012ZM26.8818 4.06979L32.1902 9.41312H28.2912C28.1057 9.41835 27.9213 9.38306 27.7508 9.30971C27.5803 9.23637 27.4279 9.12674 27.3042 8.98846C27.0432 8.72219 26.8923 8.36717 26.8818 7.99446V4.06979ZM33.6485 44.1168C33.6465 44.2767 33.6121 44.4346 33.5476 44.581C33.483 44.7273 33.3896 44.8591 33.2728 44.9685C33.1653 45.0857 33.0348 45.1798 32.8896 45.2448C32.7443 45.3098 32.5873 45.3444 32.4282 45.3465H3.86116C3.54975 45.3371 3.25124 45.22 3.0165 45.0151C2.9061 44.9034 2.8199 44.7701 2.76329 44.6236C2.70669 44.477 2.68088 44.3204 2.68749 44.1635V3.83412C2.68953 3.67418 2.72386 3.5163 2.78841 3.36995C2.85297 3.22361 2.94642 3.0918 3.06316 2.98246L3.10983 2.93579C3.33144 2.73946 3.61233 2.62283 3.90783 2.60446H24.9545V7.94779C24.9557 8.403 25.0467 8.85349 25.2224 9.27346C25.398 9.69343 25.6547 10.0746 25.9779 10.3952C26.3011 10.7158 26.6843 10.9694 27.1057 11.1417C27.5271 11.3139 27.9783 11.4012 28.4335 11.3988H33.6485V44.1168Z" fill="#4D565F"/>
<path d="M12.7177 20.3806C12.4683 20.1435 12.1568 19.9817 11.8194 19.914C11.3389 19.8051 10.8465 19.7573 10.354 19.7716H8.17936C7.89217 19.7476 7.60624 19.8307 7.37669 20.005C7.18769 20.1473 7.14336 20.4296 7.14336 20.8076V27.2336C7.13357 27.5048 7.21581 27.7712 7.37669 27.9896C7.45344 28.074 7.54901 28.1391 7.65563 28.1797C7.76225 28.2202 7.87693 28.235 7.99036 28.223C8.10687 28.2211 8.2217 28.1948 8.3274 28.1457C8.43311 28.0967 8.52734 28.026 8.60403 27.9383C8.76491 27.7199 8.84717 27.4534 8.83738 27.1823V24.8186H10.4077C11.2336 24.8738 12.0529 24.6395 12.7247 24.156C12.9968 23.9153 13.2105 23.6158 13.3495 23.2803C13.4886 22.9447 13.5494 22.5819 13.5274 22.2193C13.5379 21.8479 13.4736 21.4781 13.3384 21.132C13.1698 20.8522 12.9606 20.599 12.7177 20.3806ZM11.5744 23.0336C11.4202 23.2368 11.2052 23.3856 10.9607 23.4583C10.6399 23.5585 10.3051 23.6065 9.96903 23.6006H8.83503V21.048H9.96903C10.5015 20.9969 11.0353 21.1304 11.481 21.426C11.5967 21.5438 11.686 21.6847 11.7431 21.8396C11.8002 21.9944 11.8238 22.1596 11.8124 22.3243C11.7912 22.5764 11.7096 22.8198 11.5744 23.0336Z" fill="#27AE60"/>
<path d="M24.4188 19.6758C24.2034 19.6958 23.9945 19.7602 23.8051 19.8648C23.7296 19.8935 23.6611 19.9378 23.604 19.9949C23.5469 20.052 23.5025 20.1206 23.4738 20.1961C23.3846 20.3875 23.3514 20.6003 23.3781 20.8098V27.1891C23.3605 27.4612 23.4435 27.7303 23.6115 27.9451C23.6882 28.0295 23.7838 28.0946 23.8904 28.1351C23.997 28.1757 24.1117 28.1905 24.2251 28.1784C24.4502 28.1722 24.6665 28.09 24.8388 27.9451C24.9997 27.7267 25.0819 27.4602 25.0721 27.1891V24.4474H27.8721C27.9745 24.4563 28.0777 24.4441 28.1752 24.4116C28.2727 24.3791 28.3625 24.327 28.4391 24.2585C28.5056 24.2014 28.5575 24.1293 28.5903 24.0481C28.6232 23.9669 28.6362 23.879 28.6281 23.7918C28.6319 23.705 28.6169 23.6184 28.5843 23.5379C28.5517 23.4574 28.5022 23.3848 28.4391 23.3251C28.2735 23.2065 28.0758 23.1406 27.8721 23.1361H25.0721V21.0104H28.3808C28.4906 21.0229 28.6017 21.0125 28.7073 20.98C28.8129 20.9475 28.9107 20.8935 28.9945 20.8214C29.1156 20.6939 29.1831 20.5248 29.1831 20.3489C29.1831 20.1731 29.1156 20.0039 28.9945 19.8764C28.9107 19.8044 28.8129 19.7504 28.7073 19.7179C28.6017 19.6854 28.4906 19.675 28.3808 19.6874L24.4188 19.6758Z" fill="#27AE60"/>
</svg>
