<svg width="112" height="116" viewBox="0 0 112 116" fill="none" xmlns="http://www.w3.org/2000/svg">
<rect x="3" y="12" width="106" height="101" rx="3" stroke="#4D565F" stroke-width="5"/>
<rect x="23" y="3" width="12" height="19" rx="3" fill="white" stroke="#4D565F" stroke-width="5"/>
<rect x="78" y="3" width="12" height="19" rx="3" fill="white" stroke="#4D565F" stroke-width="5"/>
<line x1="3" y1="35.5" x2="109" y2="35.5" stroke="#4D565F" stroke-width="5"/>
<path d="M55 97C41.7452 97 31 86.031 31 72.5C31 58.969 41.7452 48 55 48" stroke="#4D565F" stroke-width="4" stroke-linecap="round" stroke-linejoin="round"/>
<path d="M77.5569 83.364C71.8877 95.3452 57.3768 100.366 45.1459 94.579C32.9151 88.7916 27.5958 74.3873 33.2651 62.406" stroke="#4D565F" stroke-width="4" stroke-linecap="round" stroke-linejoin="round"/>
<path d="M80 72C80 58.7452 68.8071 48 55 48" stroke="#4D565F" stroke-width="4" stroke-linecap="round" stroke-linejoin="round"/>
<path d="M76 70L80 74L84 70" stroke="#4D565F" stroke-width="4" stroke-linecap="round" stroke-linejoin="round"/>
<path d="M43.9615 59.7368C43.4305 59.7368 43 59.348 43 58.8684C43 58.3888 43.4305 58 43.9615 58H67.0385C67.5695 58 68 58.3888 68 58.8684C68 59.348 67.5695 59.7368 67.0385 59.7368H43.9615Z" fill="#27AE60"/>
<path d="M43.9615 64.9474C43.4305 64.9474 43 64.5586 43 64.0789C43 63.5993 43.4305 63.2105 43.9615 63.2105H67.0385C67.5695 63.2105 68 63.5993 68 64.0789C68 64.5586 67.5695 64.9474 67.0385 64.9474H43.9615Z" fill="#27AE60"/>
<path d="M54.5385 64.0789C54.5385 63.5993 54.969 63.2105 55.5 63.2105C56.031 63.2105 56.4615 63.5993 56.4615 64.0789V90.1316C56.4615 90.6112 56.031 91 55.5 91C54.969 91 54.5385 90.6112 54.5385 90.1316V64.0789Z" fill="#27AE60"/>
</svg>
