<svg width="112" height="116" viewBox="0 0 112 116" fill="none" xmlns="http://www.w3.org/2000/svg">
<rect x="3" y="12" width="106" height="101" rx="3" stroke="#4D565F" stroke-width="5"/>
<rect x="23" y="3" width="12" height="19" rx="3" fill="white" stroke="#4D565F" stroke-width="5"/>
<rect x="78" y="3" width="12" height="19" rx="3" fill="white" stroke="#4D565F" stroke-width="5"/>
<line x1="3" y1="35.5" x2="109" y2="35.5" stroke="#4D565F" stroke-width="5"/>
<line x1="23" y1="72.5" x2="90" y2="72.5" stroke="#27AE60" stroke-width="5"/>
<path d="M34.484 57.016L19.2537 72.2463L34.269 86.8199C35.2072 87.7305 36.719 87.6611 37.5699 86.6685C38.3669 85.7387 38.2815 84.344 37.3772 83.5183L28.4772 75.3922C27.8547 74.8238 27.5 74.0197 27.5 73.1768V71.7054C27.5 70.9319 27.7988 70.1882 28.334 69.6297L37.5479 60.0153C38.3548 59.1732 38.3406 57.8406 37.516 57.016C36.6787 56.1787 35.3213 56.1787 34.484 57.016Z" fill="#27AE60"/>
<path d="M19 72.5L34.484 57.016C35.3213 56.1787 36.6787 56.1787 37.516 57.016V57.016C38.3406 57.8406 38.3548 59.1732 37.5479 60.0153L28.334 69.6297C27.7988 70.1882 27.5 70.9319 27.5 71.7054V73.1768C27.5 74.0197 27.8547 74.8238 28.4772 75.3922L37.3772 83.5183C38.2815 84.344 38.3669 85.7387 37.5699 86.6685V86.6685C36.719 87.6611 35.2072 87.7305 34.269 86.8199L19 72" stroke="#27AE60"/>
<path d="M77.516 57.016L92.7463 72.2463L77.731 86.8199C76.7928 87.7305 75.281 87.6611 74.4301 86.6685C73.6331 85.7387 73.7185 84.344 74.6228 83.5183L83.5228 75.3922C84.1453 74.8238 84.5 74.0197 84.5 73.1768V71.7054C84.5 70.9319 84.2012 70.1882 83.666 69.6297L74.4521 60.0153C73.6452 59.1732 73.6594 57.8406 74.484 57.016C75.3213 56.1787 76.6787 56.1787 77.516 57.016Z" fill="#27AE60"/>
<path d="M93 72.5L77.516 57.016C76.6787 56.1787 75.3213 56.1787 74.484 57.016V57.016C73.6594 57.8406 73.6452 59.1732 74.4521 60.0153L83.666 69.6297C84.2012 70.1882 84.5 70.9319 84.5 71.7054V73.1768C84.5 74.0197 84.1453 74.8238 83.5228 75.3922L74.6228 83.5183C73.7185 84.344 73.6331 85.7387 74.4301 86.6685V86.6685C75.281 87.6611 76.7928 87.7305 77.731 86.8199L93 72" stroke="#27AE60"/>
</svg>
