<svg width="56" height="56" viewBox="0 0 56 56" fill="none" xmlns="http://www.w3.org/2000/svg">
<g clip-path="url(#clip0)">
<path d="M40.6595 14.3412C40.2045 13.8863 39.4649 13.8863 39.0099 14.3412L13.3432 40.0079C12.8882 40.4629 12.8882 41.2026 13.3432 41.6576C13.5695 41.8862 13.8682 42.0006 14.1669 42.0006C14.4655 42.0006 14.7642 41.8862 14.9929 41.6599L40.6595 15.9933C41.1145 15.5359 41.1145 14.7986 40.6595 14.3412Z" fill="#27AE60"/>
<path d="M13 19.8333C13 23.0487 15.6157 25.6667 18.8333 25.6667C22.051 25.6667 24.6667 23.0487 24.6667 19.8333C24.6667 16.618 22.051 14 18.8333 14C15.6157 14 13 16.618 13 19.8333ZM18.8333 16.3333C20.763 16.3333 22.3333 17.9037 22.3333 19.8333C22.3333 21.763 20.763 23.3333 18.8333 23.3333C16.9037 23.3333 15.3333 21.763 15.3333 19.8333C15.3333 17.9037 16.9037 16.3333 18.8333 16.3333Z" fill="#27AE60"/>
<path d="M40.9997 36.1673C40.9997 32.952 38.384 30.334 35.1663 30.334C31.9487 30.334 29.333 32.952 29.333 36.1673C29.333 39.3827 31.9487 42.0007 35.1663 42.0007C38.384 42.0007 40.9997 39.3827 40.9997 36.1673ZM31.6663 36.1673C31.6663 34.2377 33.2367 32.6673 35.1663 32.6673C37.096 32.6673 38.6663 34.2377 38.6663 36.1673C38.6663 38.097 37.096 39.6673 35.1663 39.6673C33.2367 39.6673 31.6663 38.097 31.6663 36.1673Z" fill="#27AE60"/>
<path d="M26 52C12.7452 52 2 41.031 2 27.5C2 13.969 12.7452 3 26 3" stroke="#4D565F" stroke-width="2" stroke-linecap="round" stroke-linejoin="round"/>
<path d="M48.5569 38.3636C42.8877 50.3448 28.3768 55.366 16.1459 49.5786C3.91506 43.7912 -1.40415 29.3869 4.26512 17.4057" stroke="#4D565F" stroke-width="2" stroke-linecap="round" stroke-linejoin="round"/>
<path d="M51 27C51 13.7452 39.8071 3 26 3" stroke="#4D565F" stroke-width="2" stroke-linecap="round" stroke-linejoin="round"/>
<path d="M47 25L51 29L55 25" stroke="#4D565F" stroke-width="2" stroke-linecap="round" stroke-linejoin="round"/>
</g>
<defs>
<clipPath id="clip0">
<rect width="56" height="56" fill="white"/>
</clipPath>
</defs>
</svg>
