<svg width="56" height="56" viewBox="0 0 56 56" fill="none" xmlns="http://www.w3.org/2000/svg">
<g clip-path="url(#clip0)">
<path d="M1.16678 29.1943C1.80844 29.1943 2.33111 28.6436 2.33111 27.9996C2.33111 27.2646 2.36144 26.5366 2.42211 25.8179C2.47578 25.1763 1.99978 24.6093 1.35811 24.5556C0.767776 24.4973 0.151776 24.9756 0.0981096 25.6196C0.0327763 26.4036 -0.00222374 27.1993 0.00010959 28.0486L1.16678 28.0533H0.00010959C0.00010959 28.6996 0.522776 29.1943 1.16678 29.1943Z" fill="#4D565F"/>
<path d="M1.75729 22.2422C1.85763 22.2679 1.95796 22.2819 2.05596 22.2819C2.57396 22.2819 3.04529 21.9366 3.18296 21.4139C3.37429 20.6882 3.59829 19.9766 3.84796 19.2789C4.06963 18.6746 3.75463 18.0049 3.14796 17.7856C2.55296 17.5639 1.87396 17.8812 1.65463 18.4856C1.37696 19.2486 1.13429 20.0279 0.924295 20.8189C0.763295 21.4396 1.13429 22.0766 1.75729 22.2422Z" fill="#4D565F"/>
<path d="M52.8285 38.2697C52.9591 38.3187 53.0921 38.3397 53.2251 38.3397C53.7011 38.3397 54.1491 38.0457 54.3218 37.5697C54.5971 36.8067 54.8445 36.0321 55.0545 35.2411C55.2201 34.6181 54.8515 33.9787 54.2285 33.8131C53.6171 33.6474 52.9685 34.0161 52.8005 34.6391C52.6068 35.3647 52.3828 36.0764 52.1308 36.7764C51.9068 37.3807 52.2218 38.0504 52.8285 38.2697Z" fill="#4D565F"/>
<path d="M19.2496 52.1375C18.6406 51.9205 17.9756 52.2308 17.7539 52.8352C17.5322 53.4395 17.8449 54.1092 18.4516 54.3309C19.2122 54.6085 19.9916 54.8535 20.7826 55.0635C20.8852 55.0892 20.9856 55.1032 21.0836 55.1032C21.6016 55.1032 22.0729 54.7579 22.2106 54.2352C22.3739 53.6122 22.0052 52.9729 21.3846 52.8072C20.6566 52.6135 19.9472 52.3895 19.2496 52.1375Z" fill="#4D565F"/>
<path d="M52.7712 21.2542C52.9649 21.9705 53.1282 22.6985 53.2612 23.4382C53.3639 24.0028 53.8539 24.3995 54.4069 24.3995C54.4746 24.3995 54.5469 24.3948 54.6169 24.3808C55.2492 24.2665 55.6716 23.6598 55.5572 23.0252C55.4102 22.2178 55.2329 21.4245 55.0229 20.6428C54.8549 20.0222 54.2202 19.6488 53.5926 19.8215C52.9696 19.9918 52.6032 20.6335 52.7712 21.2542Z" fill="#4D565F"/>
<path d="M34.663 52.7903C33.9443 52.9816 33.2163 53.145 32.4767 53.2756C31.842 53.3876 31.4197 53.9943 31.5317 54.6266C31.632 55.1936 32.1243 55.5903 32.6773 55.5903C32.745 55.5903 32.815 55.5856 32.8827 55.5716C33.69 55.4293 34.4833 55.252 35.265 55.042C35.888 54.8763 36.259 54.237 36.091 53.614C35.923 52.9956 35.2907 52.6223 34.663 52.7903Z" fill="#4D565F"/>
<path d="M51.2232 17.0609C51.4215 17.4833 51.8415 17.7306 52.2778 17.7306C52.4435 17.7306 52.6138 17.6956 52.7748 17.6209C53.3582 17.3456 53.6078 16.6503 53.3325 16.0669C52.9872 15.3296 52.6045 14.6086 52.1962 13.9063C51.8695 13.3486 51.1532 13.1643 50.6002 13.4863C50.0448 13.8106 49.8558 14.5246 50.1802 15.0823C50.5558 15.7239 50.9035 16.3819 51.2232 17.0609Z" fill="#4D565F"/>
<path d="M43.3117 7.12995C43.678 7.12995 44.042 6.95495 44.2683 6.63062C44.637 6.10328 44.5087 5.37528 43.979 5.00662C43.314 4.54228 42.6257 4.10595 41.9163 3.69762C41.3563 3.37795 40.6447 3.56928 40.3227 4.12928C40.0007 4.68928 40.1943 5.40095 40.7543 5.72295C41.403 6.09628 42.033 6.49528 42.6443 6.92228C42.845 7.06228 43.0783 7.12995 43.3117 7.12995Z" fill="#4D565F"/>
<path d="M46.0812 9.78583C46.6132 10.3108 47.1172 10.8592 47.6002 11.4308C47.8335 11.7038 48.1602 11.8438 48.4915 11.8438C48.7575 11.8438 49.0259 11.7528 49.2452 11.5662C49.7375 11.1508 49.7959 10.4135 49.3829 9.92117C48.8532 9.29817 48.3025 8.70083 47.7262 8.12683C47.2689 7.67183 46.5315 7.67883 46.0742 8.13383C45.6215 8.5935 45.6262 9.33317 46.0812 9.78583Z" fill="#4D565F"/>
<path d="M3.2152 34.6957C3.02153 33.9793 2.86053 33.2513 2.72986 32.514C2.6202 31.8793 1.99953 31.4617 1.3812 31.5643C0.748864 31.674 0.321864 32.2783 0.433864 32.9153C0.573864 33.7227 0.75353 34.5183 0.961197 35.3C1.10353 35.8227 1.57486 36.1657 2.0882 36.1657C2.18853 36.1657 2.28886 36.154 2.3892 36.126C3.0122 35.958 3.38086 35.3163 3.2152 34.6957Z" fill="#4D565F"/>
<path d="M50.2346 40.8268C49.8589 41.4731 49.4576 42.1054 49.0306 42.7168C48.6596 43.2441 48.7879 43.9721 49.3152 44.3408C49.5206 44.4831 49.7539 44.5508 49.9849 44.5508C50.3512 44.5508 50.7152 44.3781 50.9392 44.0538C51.4059 43.3888 51.8446 42.7028 52.2529 41.9958C52.5772 41.4381 52.3859 40.7241 51.8282 40.4021C51.2752 40.0801 50.5589 40.2645 50.2346 40.8268Z" fill="#4D565F"/>
<path d="M30.1547 2.422C30.1874 2.42433 30.2177 2.42667 30.2527 2.42667C30.8524 2.42667 31.3634 1.967 31.4124 1.358C31.466 0.716333 30.9877 0.151667 30.346 0.098C29.5737 0.0326667 28.7897 0 27.9987 0H27.9147C27.2707 0 26.79 0.522667 26.79 1.16667C26.79 1.81067 27.3547 2.33333 27.9987 2.33333C28.7267 2.33333 29.4454 2.36367 30.1547 2.422Z" fill="#4D565F"/>
<path d="M3.76832 42.0459C3.98532 42.4193 4.37732 42.6269 4.77865 42.6269C4.97932 42.6269 5.17999 42.5779 5.36432 42.4706C5.91965 42.1463 6.11099 41.4346 5.78899 40.8746C5.41565 40.2329 5.06798 39.5703 4.75065 38.8913C4.47765 38.3079 3.78698 38.0583 3.19898 38.3313C2.61565 38.6043 2.36599 39.2996 2.64132 39.8829C2.98432 40.6226 3.36232 41.3436 3.76832 42.0459Z" fill="#4D565F"/>
<path d="M39.361 53.4854C39.5267 53.4854 39.6994 53.4504 39.858 53.3734C40.593 53.028 41.3164 52.65 42.0187 52.244C42.574 51.9197 42.7654 51.208 42.4434 50.648C42.1167 50.0904 41.4004 49.9014 40.8474 50.2234C40.2057 50.5967 39.5407 50.942 38.864 51.2617C38.2807 51.537 38.031 52.2324 38.3064 52.8134C38.5047 53.238 38.9247 53.4854 39.361 53.4854Z" fill="#4D565F"/>
<path d="M36.6942 3.84424C36.8272 3.89324 36.9579 3.91424 37.0909 3.91424C37.5692 3.91424 38.0149 3.62024 38.1899 3.14424C38.4092 2.53757 38.0942 1.87024 37.4876 1.65091C36.7269 1.37557 35.9476 1.13291 35.1542 0.925239C34.5242 0.761905 33.8919 1.13291 33.7309 1.75591C33.5676 2.37891 33.9386 3.01824 34.5616 3.17924C35.2849 3.37291 35.9966 3.59457 36.6942 3.84424Z" fill="#4D565F"/>
<path d="M45.2578 49.7147C45.5238 49.7147 45.7921 49.6237 46.0091 49.4394C46.6321 48.9144 47.2294 48.3661 47.8058 47.7897C48.2608 47.3347 48.2608 46.5951 47.8058 46.1401C47.3508 45.6851 46.6111 45.6851 46.1561 46.1401C45.6264 46.6674 45.0781 47.1737 44.5064 47.6544C44.0141 48.0697 43.9511 48.8071 44.3664 49.2994C44.5974 49.5747 44.9288 49.7147 45.2578 49.7147Z" fill="#4D565F"/>
<path d="M16.0876 2.65205C15.3503 2.99971 14.6293 3.37771 13.9293 3.78838C13.3739 4.11271 13.1849 4.82671 13.5093 5.38438C13.7263 5.75538 14.1159 5.96305 14.5173 5.96305C14.7179 5.96305 14.9209 5.91171 15.1053 5.80438C15.7469 5.42871 16.4096 5.08105 17.0839 4.76371C17.6673 4.48838 17.9169 3.79305 17.6416 3.21205C17.3663 2.62638 16.6686 2.37438 16.0876 2.65205Z" fill="#4D565F"/>
<path d="M4.1405 15.651C4.3225 15.756 4.52316 15.805 4.7215 15.805C5.12516 15.805 5.51716 15.595 5.73416 15.2193C6.1075 14.5706 6.50883 13.9406 6.9335 13.327C7.30216 12.7996 7.16916 12.0716 6.64183 11.7053C6.11216 11.3343 5.38416 11.465 5.01783 11.997C4.5535 12.662 4.11483 13.3503 3.70883 14.0573C3.38916 14.6173 3.58283 15.329 4.1405 15.651Z" fill="#4D565F"/>
<path d="M11.587 6.73262C11.1716 6.24028 10.4366 6.18195 9.94195 6.59495C9.31895 7.12228 8.71928 7.67295 8.14762 8.24928C7.69495 8.70662 7.69728 9.44628 8.15228 9.89895C8.38095 10.1253 8.67728 10.2396 8.97595 10.2396C9.27695 10.2396 9.57562 10.1253 9.80195 9.89662C10.3293 9.36695 10.8776 8.86295 11.4493 8.37995C11.9393 7.96228 12.0046 7.22495 11.587 6.73262Z" fill="#4D565F"/>
<path d="M14.0308 52.2705C14.2152 52.3755 14.4158 52.4268 14.6142 52.4268C15.0155 52.4268 15.4098 52.2191 15.6245 51.8435C15.9488 51.2858 15.7575 50.5718 15.1975 50.2498C14.5512 49.8765 13.9212 49.4751 13.3098 49.0481C12.7872 48.6771 12.0592 48.8055 11.6858 49.3328C11.3148 49.8601 11.4432 50.5881 11.9705 50.9568C12.6355 51.4258 13.3238 51.8645 14.0308 52.2705Z" fill="#4D565F"/>
<path d="M6.71581 44.3881C6.22347 44.8035 6.16047 45.5385 6.57347 46.0308C7.10081 46.6561 7.65147 47.2535 8.22547 47.8298C8.45414 48.0561 8.75281 48.1705 9.05147 48.1705C9.35014 48.1705 9.64881 48.0561 9.87747 47.8275C10.3325 47.3725 10.3325 46.6328 9.87747 46.1778C9.34781 45.6505 8.84381 45.1021 8.36314 44.5281C7.94081 44.0381 7.20814 43.9751 6.71581 44.3881Z" fill="#4D565F"/>
<path d="M20.974 3.25964C21.0744 3.25964 21.177 3.24798 21.2797 3.21764C21.996 3.02398 22.7217 2.86064 23.4614 2.72998C24.0937 2.61798 24.5184 2.01131 24.404 1.37664C24.292 0.741976 23.6737 0.314976 23.0507 0.433976C22.2434 0.578643 21.4477 0.755976 20.6684 0.968309C20.0477 1.13631 19.6814 1.77798 19.8494 2.39864C19.9894 2.91898 20.4607 3.25964 20.974 3.25964Z" fill="#4D565F"/>
<path d="M29.1785 54.8335C29.1785 54.1895 28.6442 53.6669 28.0002 53.6669C27.2582 53.6669 26.5185 53.6342 25.7928 53.5735C25.1605 53.5129 24.5865 53.9935 24.5305 54.6375C24.4768 55.2792 24.9528 55.8439 25.5922 55.8999C26.3505 55.9652 27.0995 55.9932 28.0258 55.9955V56.0002C28.6698 55.9979 29.1808 55.4752 29.1785 54.8335Z" fill="#4D565F"/>
<path d="M54.8323 26.7773C54.1883 26.7773 53.6633 27.356 53.6633 28C53.6633 28.7537 53.6306 29.5003 53.5676 30.2353C53.514 30.877 53.9876 31.444 54.6293 31.4977C54.6643 31.5 54.697 31.5023 54.732 31.5023C55.3316 31.5023 55.8403 31.0427 55.8916 30.436C55.9593 29.6333 55.9966 28.8213 55.9943 28.07C55.9966 28.0467 55.999 27.9113 55.999 27.8857C55.999 27.2417 55.474 26.7773 54.8323 26.7773Z" fill="#4D565F"/>
<path d="M41.6595 14.3412C41.2045 13.8863 40.4649 13.8863 40.0099 14.3412L14.3432 40.0079C13.8882 40.4629 13.8882 41.2026 14.3432 41.6576C14.5695 41.8862 14.8682 42.0006 15.1669 42.0006C15.4655 42.0006 15.7642 41.8862 15.9929 41.6599L41.6595 15.9933C42.1145 15.5359 42.1145 14.7986 41.6595 14.3412Z" fill="#27AE60"/>
<path d="M14 19.8333C14 23.0487 16.6157 25.6667 19.8333 25.6667C23.051 25.6667 25.6667 23.0487 25.6667 19.8333C25.6667 16.618 23.051 14 19.8333 14C16.6157 14 14 16.618 14 19.8333ZM19.8333 16.3333C21.763 16.3333 23.3333 17.9037 23.3333 19.8333C23.3333 21.763 21.763 23.3333 19.8333 23.3333C17.9037 23.3333 16.3333 21.763 16.3333 19.8333C16.3333 17.9037 17.9037 16.3333 19.8333 16.3333Z" fill="#27AE60"/>
<path d="M41.9997 36.1673C41.9997 32.952 39.384 30.334 36.1663 30.334C32.9487 30.334 30.333 32.952 30.333 36.1673C30.333 39.3827 32.9487 42.0007 36.1663 42.0007C39.384 42.0007 41.9997 39.3827 41.9997 36.1673ZM32.6663 36.1673C32.6663 34.2377 34.2367 32.6673 36.1663 32.6673C38.096 32.6673 39.6663 34.2377 39.6663 36.1673C39.6663 38.097 38.096 39.6673 36.1663 39.6673C34.2367 39.6673 32.6663 38.097 32.6663 36.1673Z" fill="#27AE60"/>
</g>
<defs>
<clipPath id="clip0">
<rect width="56" height="56" fill="white"/>
</clipPath>
</defs>
</svg>
