<svg width="20" height="20" viewBox="0 0 20 20" fill="none" xmlns="http://www.w3.org/2000/svg">
<path fill-rule="evenodd" clip-rule="evenodd" d="M14.039 20H5.955C4.37602 19.9976 2.86242 19.3692 1.7461 18.2525C0.629782 17.1358 0.00185147 15.622 0 14.043L0 5.958C0.00185084 4.37893 0.62975 2.86502 1.74604 1.74816C2.86233 0.631307 4.37593 0.00264615 5.955 0H14.039C15.6191 0.0010585 17.1342 0.629019 18.2518 1.74605C19.3694 2.86307 19.9981 4.37789 20 5.958V14.043C19.9981 15.623 19.3694 17.1377 18.2518 18.2546C17.1342 19.3715 15.619 19.9992 14.039 20ZM17.986 5.958C17.986 4.91119 17.5702 3.90726 16.83 3.16705C16.0897 2.42684 15.0858 2.011 14.039 2.011H5.955C4.90819 2.011 3.90426 2.42684 3.16405 3.16705C2.42384 3.90726 2.008 4.91119 2.008 5.958V14.043C2.00827 15.0896 2.42423 16.0933 3.1644 16.8333C3.90458 17.5733 4.90836 17.989 5.955 17.989H14.039C15.0856 17.989 16.0894 17.5733 16.8296 16.8333C17.5698 16.0933 17.9857 15.0896 17.986 14.043V5.958ZM15.179 6.106C14.9338 6.106 14.694 6.03328 14.4901 5.89702C14.2862 5.76077 14.1272 5.56711 14.0334 5.34053C13.9395 5.11395 13.915 4.86462 13.9628 4.62409C14.0107 4.38355 14.1288 4.1626 14.3022 3.98919C14.4756 3.81577 14.6966 3.69767 14.9371 3.64983C15.1776 3.60198 15.4269 3.62654 15.6535 3.72039C15.8801 3.81424 16.0738 3.97318 16.21 4.17709C16.3463 4.38101 16.419 4.62075 16.419 4.866C16.419 5.02884 16.3869 5.19008 16.3246 5.34053C16.2623 5.49097 16.171 5.62767 16.0558 5.74281C15.9407 5.85796 15.804 5.94929 15.6535 6.01161C15.5031 6.07393 15.3418 6.106 15.179 6.106ZM10 15.173C8.97683 15.1732 7.97659 14.87 7.12576 14.3017C6.27494 13.7334 5.61174 12.9255 5.22006 11.9803C4.82837 11.0351 4.72579 9.99494 4.92528 8.99141C5.12476 7.98788 5.61737 7.06605 6.34078 6.34249C7.0642 5.61893 7.98594 5.12615 8.98943 4.92647C9.99292 4.72679 11.0331 4.82917 11.9784 5.22068C12.9237 5.61218 13.7317 6.27521 14.3001 7.12593C14.8686 7.97665 15.172 8.97683 15.172 10C15.1707 11.3714 14.6254 12.6862 13.6558 13.656C12.6861 14.6259 11.3714 15.1714 10 15.173ZM10 6.839C9.37481 6.839 8.76367 7.02439 8.24384 7.37172C7.72402 7.71906 7.31887 8.21274 7.07962 8.79034C6.84037 9.36794 6.77777 10.0035 6.89974 10.6167C7.02171 11.2299 7.32276 11.7931 7.76484 12.2352C8.20691 12.6772 8.77015 12.9783 9.38332 13.1003C9.99649 13.2222 10.6321 13.1596 11.2097 12.9204C11.7873 12.6811 12.2809 12.276 12.6283 11.7562C12.9756 11.2363 13.161 10.6252 13.161 10C13.161 9.16165 12.828 8.35764 12.2352 7.76484C11.6424 7.17203 10.8383 6.839 10 6.839Z" fill="white"/>
</svg>
