<svg width="20" height="13" viewBox="0 0 20 13" fill="none" xmlns="http://www.w3.org/2000/svg">
<path fill-rule="evenodd" clip-rule="evenodd" d="M20.0011 1.82392V2.05592C19.9491 2.20492 19.9061 2.35592 19.8461 2.50392C19.5818 3.10111 19.2589 3.67058 18.8821 4.20392C18.3821 4.96092 17.8181 5.67592 17.2911 6.41492C17.095 6.67608 16.9242 6.95535 16.7811 7.24892C16.7008 7.40701 16.6663 7.58436 16.6813 7.76102C16.6963 7.93768 16.7603 8.10664 16.8661 8.24892C17.0204 8.46525 17.1952 8.66618 17.3881 8.84892C17.9953 9.43943 18.5724 10.0602 19.1171 10.7089C19.4993 11.1081 19.7996 11.5783 20.0011 12.0929V12.2989C19.959 12.385 19.9013 12.4627 19.8311 12.5279C19.64 12.6859 19.4019 12.7759 19.1541 12.7839C18.2351 12.7839 17.3181 12.7839 16.3991 12.7839C16.1844 12.783 15.9717 12.7419 15.7721 12.6629C15.3271 12.4745 14.9352 12.1795 14.6311 11.8039C14.3311 11.4599 14.0311 11.1039 13.7311 10.7569C13.5286 10.5028 13.2893 10.2804 13.0211 10.0969C12.9434 10.0382 12.8544 9.9963 12.7597 9.97392C12.6649 9.95155 12.5666 9.94918 12.4709 9.96696C12.3752 9.98475 12.2842 10.0223 12.2038 10.0772C12.1235 10.1321 12.0554 10.2032 12.0041 10.2859C11.8392 10.5116 11.7259 10.7707 11.6721 11.0449C11.6008 11.3916 11.5673 11.745 11.5721 12.0989C11.5742 12.1894 11.5581 12.2795 11.5247 12.3636C11.4913 12.4478 11.4413 12.5244 11.3776 12.5888C11.314 12.6532 11.238 12.7041 11.1542 12.7385C11.0705 12.7729 10.9806 12.79 10.8901 12.7889C10.4591 12.7689 10.0261 12.7889 9.59008 12.7889C9.26054 12.7698 8.93329 12.722 8.61208 12.6459C7.14365 12.2883 5.82018 11.4891 4.82008 10.3559C4.16408 9.61974 3.57539 8.82623 3.06108 7.98492C1.9999 6.27078 1.06413 4.48211 0.261081 2.63292C0.184081 2.44992 0.101081 2.26892 0.0330808 2.08392C0.0125335 2.04045 0.00130185 1.99315 0.000106599 1.94508C-0.00108866 1.89701 0.00777887 1.84922 0.0261402 1.80477C0.0445015 1.76033 0.071951 1.72022 0.106727 1.687C0.141504 1.65379 0.182839 1.62822 0.228081 1.61192C0.325362 1.57051 0.430381 1.55039 0.536081 1.55292H3.37208C3.44941 1.55263 3.52643 1.56272 3.60108 1.58292C3.69795 1.6174 3.78498 1.67493 3.85466 1.75054C3.92435 1.82614 3.9746 1.91757 4.00108 2.01692C4.30552 2.8013 4.66026 3.56522 5.06308 4.30392C5.42574 5.00503 5.84726 5.6741 6.32308 6.30392C6.46884 6.49673 6.64398 6.66545 6.84208 6.80392C6.95793 6.88876 7.09852 6.93304 7.24208 6.92992C7.35269 6.92044 7.45806 6.87859 7.54503 6.80959C7.632 6.74058 7.69671 6.64748 7.73108 6.54192C7.86151 6.21234 7.93783 5.86385 7.95708 5.50992C8.00522 4.92646 8.0119 4.34033 7.97708 3.75592C7.97135 3.4055 7.93791 3.05607 7.87708 2.71092C7.8496 2.48289 7.76011 2.26676 7.61836 2.08604C7.4766 1.90532 7.288 1.76693 7.07308 1.68592C6.97308 1.64892 6.87308 1.62092 6.76608 1.58592C6.86131 1.44385 6.99287 1.3299 7.14708 1.25592C7.42483 1.13411 7.72224 1.06332 8.02508 1.04692C8.63884 0.998949 9.25484 0.985928 9.87008 1.00792C10.2717 1.0077 10.6714 1.06254 11.0581 1.17092C11.1783 1.1991 11.2879 1.26119 11.3739 1.34982C11.4599 1.43845 11.5186 1.5499 11.5431 1.67092C11.5693 1.78328 11.5857 1.89771 11.5921 2.01292C11.6191 2.59292 11.5721 3.16992 11.5631 3.74792C11.5521 4.42892 11.5201 5.10792 11.5531 5.78792C11.5495 6.09775 11.6398 6.40141 11.8121 6.65892C11.847 6.72071 11.895 6.77416 11.9527 6.81559C12.0103 6.85701 12.0763 6.8854 12.146 6.89881C12.2157 6.91222 12.2875 6.91033 12.3564 6.89325C12.4253 6.87618 12.4897 6.84433 12.5451 6.79992C12.771 6.64619 12.9694 6.45553 13.1321 6.23592C13.6386 5.58309 14.0841 4.88517 14.4631 4.15092C14.8338 3.44932 15.1572 2.7237 15.4311 1.97892C15.4541 1.85013 15.5267 1.73548 15.6332 1.65958C15.7398 1.58368 15.8718 1.55257 16.0011 1.57292C17.0964 1.57292 18.1917 1.57292 19.2871 1.57292C19.4046 1.57234 19.5219 1.58104 19.6381 1.59892C19.7891 1.61792 19.9381 1.64892 20.0011 1.82392Z" fill="white"/>
</svg>
