<svg width="61" height="60" viewBox="0 0 61 60" fill="none" xmlns="http://www.w3.org/2000/svg">
<rect x="0.121094" width="60" height="60" fill="white"/>
<path d="M4.1416 39.5851V6.81214C4.1416 6.24606 4.62598 5.75977 5.19187 5.75977H54.7774C55.3424 5.75977 55.8277 6.24512 55.8277 6.81214V39.5851H4.1416Z" fill="#2B2F33"/>
<path d="M55.8267 39.5859V43.7936C55.8267 44.3597 55.3424 44.846 54.7765 44.846H5.19089C4.62594 44.846 4.14062 44.3606 4.14062 43.7936V39.5859H55.8267Z" fill="#CFDCE5"/>
<path d="M41.0526 52.291H18.9248V53.3434H41.0526V52.291Z" fill="#CFDCE5"/>
<path d="M37.3339 52.2903H22.6357L23.686 44.8457H36.2836L37.3339 52.2903Z" fill="#AAC1CE"/>
<path d="M53.7272 7.86523H6.24121V37.482H53.7272V7.86523Z" fill="white"/>
<path d="M11.8397 16.6871C11.8397 16.5021 11.7701 16.3605 11.6309 16.2626C11.4917 16.1624 11.2411 16.0579 10.8792 15.9491C10.5173 15.838 10.2308 15.7292 10.0196 15.6225C9.44428 15.3307 9.1566 14.9377 9.1566 14.4435C9.1566 14.1866 9.23316 13.958 9.38628 13.7577C9.54172 13.5552 9.76328 13.3973 10.051 13.2841C10.341 13.1709 10.6658 13.1143 11.0254 13.1143C11.3873 13.1143 11.7098 13.1764 11.9928 13.3005C12.2758 13.4224 12.4951 13.5955 12.6505 13.8197C12.8083 14.044 12.8871 14.2987 12.8871 14.5839H11.8432C11.8432 14.3662 11.7701 14.1975 11.6239 14.0777C11.4778 13.9558 11.2724 13.8948 11.008 13.8948C10.7528 13.8948 10.5544 13.946 10.4129 14.0483C10.2714 14.1485 10.2006 14.2813 10.2006 14.4468C10.2006 14.6013 10.283 14.7309 10.4477 14.8354C10.6147 14.9399 10.8595 15.0379 11.182 15.1293C11.7759 15.297 12.2086 15.5049 12.48 15.7531C12.7514 16.0013 12.8871 16.3105 12.8871 16.6806C12.8871 17.0921 12.7213 17.4154 12.3895 17.6506C12.0578 17.8835 11.6112 18 11.0497 18C10.66 18 10.305 17.9336 9.98484 17.8008C9.66468 17.6658 9.41992 17.4818 9.25056 17.2489C9.08352 17.0159 9 16.7459 9 16.4389H10.0475C10.0475 16.9636 10.3816 17.226 11.0497 17.226C11.298 17.226 11.4917 17.1792 11.6309 17.0856C11.7701 16.9898 11.8397 16.857 11.8397 16.6871Z" fill="#249052"/>
<path d="M14.735 13.5323V14.401H15.3788V15.0934H14.735V16.857C14.735 16.9876 14.7617 17.0812 14.8151 17.1378C14.8684 17.1944 14.9705 17.2227 15.1213 17.2227C15.2327 17.2227 15.3313 17.2151 15.4171 17.1999V17.9151C15.2199 17.9717 15.0169 18 14.8081 18C14.1028 18 13.7432 17.6658 13.7293 16.9974V15.0934H13.1795V14.401H13.7293V13.5323H14.735Z" fill="#249052"/>
<path d="M18.1211 17.9347C18.0747 17.8498 18.041 17.7442 18.0201 17.6179C17.7765 17.8726 17.4599 18 17.0701 18C16.7012 18 16.395 17.8998 16.1514 17.6995C15.9101 17.4992 15.7895 17.2467 15.7895 16.9419C15.7895 16.5674 15.9368 16.28 16.2314 16.0797C16.5284 15.8794 16.9564 15.7781 17.5155 15.776H17.9784V15.5735C17.9784 15.4102 17.9331 15.2796 17.8427 15.1816C17.7545 15.0836 17.6141 15.0346 17.4216 15.0346C17.2522 15.0346 17.1188 15.0727 17.0214 15.1489C16.9263 15.2251 16.8787 15.3296 16.8787 15.4624H15.873C15.873 15.2578 15.9403 15.0684 16.0748 14.8942C16.2094 14.72 16.3996 14.5839 16.6455 14.486C16.8915 14.3858 17.1675 14.3357 17.4738 14.3357C17.9378 14.3357 18.3055 14.4457 18.5769 14.6656C18.8507 14.8833 18.9876 15.1903 18.9876 15.5865V17.1182C18.9899 17.4535 19.0398 17.7072 19.1372 17.8792V17.9347H18.1211ZM17.2893 17.2782C17.4378 17.2782 17.5747 17.2478 17.7 17.1868C17.8253 17.1237 17.9181 17.0398 17.9784 16.9353V16.3279H17.6025C17.0991 16.3279 16.8311 16.4912 16.7987 16.8178L16.7952 16.8733C16.7952 16.9909 16.8393 17.0877 16.9274 17.1639C17.0156 17.2401 17.1362 17.2782 17.2893 17.2782Z" fill="#249052"/>
<path d="M21.876 15.2861C21.7391 15.2687 21.6184 15.26 21.514 15.26C21.1336 15.26 20.8842 15.3808 20.7658 15.6225V17.9347H19.7601V14.401H20.7102L20.738 14.8223C20.9398 14.4979 21.2194 14.3357 21.5767 14.3357C21.688 14.3357 21.7924 14.3499 21.8899 14.3782L21.876 15.2861Z" fill="#249052"/>
<path d="M22.4293 17.9347V13.1796H24.2041C24.8189 13.1796 25.2852 13.2907 25.603 13.5127C25.9209 13.7326 26.0798 14.056 26.0798 14.4827C26.0798 14.7157 26.016 14.9214 25.8884 15.0999C25.7608 15.2763 25.5833 15.4058 25.356 15.4886C25.6158 15.5495 25.82 15.6725 25.9684 15.8576C26.1192 16.0427 26.1946 16.2691 26.1946 16.5369C26.1946 16.9941 26.0392 17.3403 25.7283 17.5754C25.4174 17.8106 24.9743 17.9303 24.399 17.9347H22.4293ZM23.4733 15.8641V17.1476H24.3676C24.6136 17.1476 24.805 17.0932 24.9418 16.9843C25.081 16.8733 25.1506 16.7209 25.1506 16.5271C25.1506 16.0917 24.9105 15.8707 24.4303 15.8641H23.4733ZM23.4733 15.1718H24.2458C24.7725 15.1631 25.0358 14.966 25.0358 14.5807C25.0358 14.3651 24.9685 14.2105 24.834 14.1169C24.7017 14.0211 24.4918 13.9732 24.2041 13.9732H23.4733V15.1718Z" fill="#249052"/>
<path d="M29.17 17.5754C28.9218 17.8585 28.5784 18 28.1399 18C27.7363 18 27.4277 17.8911 27.2143 17.6734C27.0031 17.4557 26.8953 17.1367 26.8906 16.7165V14.401H27.8963V16.6839C27.8963 17.0518 28.075 17.2358 28.4323 17.2358C28.7733 17.2358 29.0076 17.1248 29.1352 16.9027V14.401H30.1444V17.9347H29.1979L29.17 17.5754Z" fill="#249052"/>
<path d="M32.9423 16.9582C32.9423 16.8428 32.8809 16.7524 32.7579 16.6871C32.6373 16.6196 32.4424 16.5598 32.1733 16.5075C31.2777 16.3312 30.83 15.9741 30.83 15.4363C30.83 15.1228 30.968 14.8615 31.2441 14.6525C31.5225 14.4413 31.8856 14.3357 32.3333 14.3357C32.8113 14.3357 33.1929 14.4413 33.4783 14.6525C33.7659 14.8637 33.9098 15.138 33.9098 15.4755H32.9041C32.9041 15.3405 32.8577 15.2295 32.7649 15.1424C32.6721 15.0531 32.5271 15.0085 32.3299 15.0085C32.1605 15.0085 32.0294 15.0444 31.9366 15.1163C31.8438 15.1881 31.7974 15.2796 31.7974 15.3906C31.7974 15.4951 31.8496 15.58 31.954 15.6453C32.0607 15.7085 32.2394 15.764 32.4899 15.8119C32.7405 15.8576 32.9516 15.9099 33.1233 15.9686C33.6546 16.1515 33.9202 16.4683 33.9202 16.919C33.9202 17.2412 33.7729 17.5025 33.4783 17.7028C33.1836 17.9009 32.8031 18 32.3368 18C32.0213 18 31.7406 17.9477 31.4947 17.8432C31.2511 17.7366 31.0597 17.5918 30.9205 17.4089C30.7813 17.2238 30.7117 17.0246 30.7117 16.8112H31.6652C31.6745 16.9789 31.7406 17.1073 31.8635 17.1966C31.9865 17.2859 32.1512 17.3305 32.3577 17.3305C32.5503 17.3305 32.6953 17.2968 32.7927 17.2293C32.8925 17.1596 32.9423 17.0692 32.9423 16.9582Z" fill="#249052"/>
<path d="M35.6324 17.9347H34.6232V14.401H35.6324V17.9347ZM34.564 13.4866C34.564 13.3451 34.6139 13.2286 34.7136 13.1372C34.8157 13.0457 34.9538 13 35.1278 13C35.2994 13 35.4363 13.0457 35.5384 13.1372C35.6405 13.2286 35.6915 13.3451 35.6915 13.4866C35.6915 13.6303 35.6393 13.7479 35.5349 13.8393C35.4328 13.9308 35.2971 13.9765 35.1278 13.9765C34.9584 13.9765 34.8215 13.9308 34.7171 13.8393C34.615 13.7479 34.564 13.6303 34.564 13.4866Z" fill="#249052"/>
<path d="M37.3898 14.401L37.4211 14.8093C37.6902 14.4936 38.051 14.3357 38.5034 14.3357C38.9024 14.3357 39.1994 14.4457 39.3942 14.6656C39.5891 14.8855 39.6889 15.2142 39.6935 15.6519V17.9347H38.6878V15.6747C38.6878 15.4744 38.6414 15.3296 38.5486 15.2404C38.4558 15.1489 38.3015 15.1032 38.0858 15.1032C37.8027 15.1032 37.5904 15.2164 37.4489 15.4428V17.9347H36.4432V14.401H37.3898Z" fill="#249052"/>
<path d="M42.1921 18C41.64 18 41.1899 17.8411 40.8419 17.5232C40.4962 17.2053 40.3234 16.7818 40.3234 16.2528V16.1613C40.3234 15.8064 40.3965 15.4897 40.5426 15.211C40.6888 14.9301 40.8953 14.7146 41.1621 14.5643C41.4312 14.4119 41.7374 14.3357 42.0808 14.3357C42.5958 14.3357 43.0007 14.4881 43.2953 14.7929C43.5923 15.0978 43.7407 15.5299 43.7407 16.0895V16.4749H41.343C41.3755 16.7056 41.4729 16.8907 41.6353 17.03C41.8001 17.1694 42.0077 17.2391 42.2583 17.2391C42.6457 17.2391 42.9485 17.1073 43.1665 16.8439L43.6607 17.3632C43.5099 17.5635 43.3057 17.7202 43.0482 17.8334C42.7907 17.9445 42.5053 18 42.1921 18ZM42.0773 15.0999C41.8778 15.0999 41.7154 15.1631 41.5901 15.2894C41.4671 15.4156 41.3883 15.5963 41.3535 15.8315H42.7524V15.7564C42.7478 15.5474 42.6875 15.3862 42.5715 15.273C42.4555 15.1576 42.2907 15.0999 42.0773 15.0999Z" fill="#249052"/>
<path d="M46.3542 16.9582C46.3542 16.8428 46.2927 16.7524 46.1698 16.6871C46.0491 16.6196 45.8543 16.5598 45.5851 16.5075C44.6896 16.3312 44.2419 15.9741 44.2419 15.4363C44.2419 15.1228 44.3799 14.8615 44.656 14.6525C44.9344 14.4413 45.2975 14.3357 45.7452 14.3357C46.2231 14.3357 46.6048 14.4413 46.8901 14.6525C47.1778 14.8637 47.3217 15.138 47.3217 15.4755H46.3159C46.3159 15.3405 46.2695 15.2295 46.1767 15.1424C46.0839 15.0531 45.9389 15.0085 45.7417 15.0085C45.5724 15.0085 45.4413 15.0444 45.3485 15.1163C45.2557 15.1881 45.2093 15.2796 45.2093 15.3906C45.2093 15.4951 45.2615 15.58 45.3659 15.6453C45.4726 15.7085 45.6513 15.764 45.9018 15.8119C46.1524 15.8576 46.3635 15.9099 46.5352 15.9686C47.0665 16.1515 47.3321 16.4683 47.3321 16.919C47.3321 17.2412 47.1848 17.5025 46.8901 17.7028C46.5955 17.9009 46.215 18 45.7487 18C45.4332 18 45.1525 17.9477 44.9065 17.8432C44.6629 17.7366 44.4715 17.5918 44.3323 17.4089C44.1931 17.2238 44.1235 17.0246 44.1235 16.8112H45.0771C45.0863 16.9789 45.1525 17.1073 45.2754 17.1966C45.3984 17.2859 45.5631 17.3305 45.7696 17.3305C45.9621 17.3305 46.1071 17.2968 46.2046 17.2293C46.3043 17.1596 46.3542 17.0692 46.3542 16.9582Z" fill="#249052"/>
<path d="M50.0221 16.9582C50.0221 16.8428 49.9606 16.7524 49.8377 16.6871C49.717 16.6196 49.5222 16.5598 49.253 16.5075C48.3575 16.3312 47.9098 15.9741 47.9098 15.4363C47.9098 15.1228 48.0478 14.8615 48.3239 14.6525C48.6023 14.4413 48.9654 14.3357 49.4131 14.3357C49.891 14.3357 50.2727 14.4413 50.558 14.6525C50.8457 14.8637 50.9896 15.138 50.9896 15.4755H49.9838C49.9838 15.3405 49.9374 15.2295 49.8446 15.1424C49.7518 15.0531 49.6068 15.0085 49.4096 15.0085C49.2403 15.0085 49.1092 15.0444 49.0164 15.1163C48.9236 15.1881 48.8772 15.2796 48.8772 15.3906C48.8772 15.4951 48.9294 15.58 49.0338 15.6453C49.1405 15.7085 49.3192 15.764 49.5697 15.8119C49.8203 15.8576 50.0314 15.9099 50.2031 15.9686C50.7344 16.1515 51 16.4683 51 16.919C51 17.2412 50.8527 17.5025 50.558 17.7028C50.2634 17.9009 49.8829 18 49.4166 18C49.1011 18 48.8204 17.9477 48.5744 17.8432C48.3308 17.7366 48.1395 17.5918 48.0002 17.4089C47.861 17.2238 47.7915 17.0246 47.7915 16.8112H48.745C48.7542 16.9789 48.8204 17.1073 48.9433 17.1966C49.0663 17.2859 49.231 17.3305 49.4375 17.3305C49.63 17.3305 49.775 17.2968 49.8725 17.2293C49.9722 17.1596 50.0221 17.0692 50.0221 16.9582Z" fill="#249052"/>
<path d="M36.2827 44.8457H23.6851L23.0986 49.0008L36.472 46.1835L36.2827 44.8457Z" fill="#8BA0AE"/>
<path d="M59.9618 53.3008H0V54.2396H59.9618V53.3008Z" fill="#8BA0AE"/>
<path d="M48.3463 53.3419H36.3324C35.0564 53.3419 34.0117 52.2952 34.0117 51.0165V25.6262C34.0117 24.3475 35.0554 23.3008 36.3324 23.3008H48.3473C49.6233 23.3008 50.668 24.3475 50.668 25.6262V51.0165C50.667 52.2952 49.6224 53.3419 48.3463 53.3419Z" fill="#2B2F33"/>
<path d="M49.5686 25.6719H35.1104V49.3574H49.5686V25.6719Z" fill="white"/>
<path d="M44.5081 24.7334H41.5493C41.4163 24.7334 41.3076 24.6248 41.3076 24.4917C41.3076 24.3587 41.4163 24.25 41.5493 24.25H44.5081C44.6411 24.25 44.7498 24.3587 44.7498 24.4917C44.7498 24.6248 44.6411 24.7334 44.5081 24.7334Z" fill="#CFDCE5"/>
<path d="M40.1719 24.7344C40.3057 24.7344 40.4141 24.626 40.4141 24.4922C40.4141 24.3584 40.3057 24.25 40.1719 24.25C40.0381 24.25 39.9297 24.3584 39.9297 24.4922C39.9297 24.626 40.0381 24.7344 40.1719 24.7344Z" fill="#CFDCE5"/>
<path d="M42.3393 52.4957C41.7088 52.4957 41.1963 51.9813 41.1963 51.3504C41.1963 50.7195 41.7097 50.2051 42.3393 50.2051C42.9689 50.2051 43.4823 50.7195 43.4823 51.3504C43.4823 51.9813 42.9698 52.4957 42.3393 52.4957ZM42.3393 50.4388C41.8381 50.4388 41.4305 50.8472 41.4305 51.3495C41.4305 51.8517 41.8381 52.2601 42.3393 52.2601C42.8406 52.2601 43.2481 51.8517 43.2481 51.3495C43.2481 50.8472 42.8406 50.4388 42.3393 50.4388Z" fill="#CFDCE5"/>
<path d="M42.3385 36.9313C44.8154 36.9313 46.8234 34.9193 46.8234 32.4373C46.8234 29.9554 44.8154 27.9434 42.3385 27.9434C39.8615 27.9434 37.8535 29.9554 37.8535 32.4373C37.8535 34.9193 39.8615 36.9313 42.3385 36.9313Z" fill="#2B2F33"/>
<path d="M40.0264 34.0658C40.0264 34.0658 40.0264 34.0301 40.0264 33.6415C40.0264 33.1242 40.6035 32.3544 41.74 32.3018V31.9413C41.3708 31.731 41.1216 31.3349 41.1216 30.8796C41.1216 30.2055 41.6669 29.6582 42.3405 29.6582C43.0132 29.6582 43.5594 30.2046 43.5594 30.8796C43.5594 31.3349 43.3102 31.731 42.9411 31.9413V32.3009C44.0766 32.3544 44.6547 33.1233 44.6547 33.6405C44.6547 34.0301 44.6547 34.0649 44.6547 34.0649H40.0264V34.0658Z" fill="white"/>
<path d="M45.0814 39.6445H39.5887C38.6288 39.6445 37.8506 40.4227 37.8506 41.3827C37.8506 42.3427 38.6288 43.1209 39.5887 43.1209H45.0814C46.0414 43.1209 46.8196 42.3427 46.8196 41.3827C46.8196 40.4227 46.0414 39.6445 45.0814 39.6445Z" fill="#249052"/>
<g opacity="0.35">
<path opacity="0.35" d="M37.8555 41.8431V39.6426H40.0506L37.8555 41.8431Z" fill="white"/>
</g>
<path d="M44.0909 44.3926H40.5859V44.861H44.0909V44.3926Z" fill="#AAC1CE"/>
<path d="M46.9102 45.9785H37.7754V46.447H46.9102V45.9785Z" fill="#AAC1CE"/>
<path d="M28.3245 24.377H10.8672V24.8454H28.3245V24.377Z" fill="#8BA0AE"/>
<path d="M28.3245 27.4785H10.8672V27.947H28.3245V27.4785Z" fill="#8BA0AE"/>
<path d="M28.3245 30.8633H10.8672V31.3317H28.3245V30.8633Z" fill="#8BA0AE"/>
</svg>
