<svg width="57" height="57" viewBox="0 0 57 57" fill="none" xmlns="http://www.w3.org/2000/svg">
<g clip-path="url(#clip0)">
<path d="M45.4745 28.1503C45.5838 28.2595 45.7168 28.3474 45.8616 28.4092C46.1514 28.5303 46.4791 28.5303 46.7689 28.4092C46.9161 28.3498 47.0468 28.2619 47.156 28.1503L56.6536 18.6527C57.1168 18.1895 57.1168 17.4367 56.6536 16.9735C56.1905 16.5104 55.4376 16.5104 54.9745 16.9735L47.5028 24.4453L47.5028 3.5619C47.5028 2.9064 46.9708 2.3744 46.3153 2.3744C45.6598 2.3744 45.1278 2.9064 45.1278 3.5619L45.1278 24.4453L37.656 16.9735C37.4233 16.7408 37.1193 16.6244 36.8153 16.6244C36.5113 16.6244 36.2073 16.7408 35.9745 16.9712C35.5114 17.4343 35.5114 18.1872 35.9745 18.6503L45.4745 28.1503Z" fill="#27AE60"/>
<path d="M1.1875 11.875C0.531663 11.875 0 11.3433 0 10.6875C0 10.0317 0.531662 9.5 1.1875 9.5H29.6875C30.3433 9.5 30.875 10.0317 30.875 10.6875C30.875 11.3433 30.3433 11.875 29.6875 11.875H1.1875Z" fill="#4D565F"/>
<path d="M1.1875 19C0.531663 19 0 18.4683 0 17.8125C0 17.1567 0.531662 16.625 1.1875 16.625H29.6875C30.3433 16.625 30.875 17.1567 30.875 17.8125C30.875 18.4683 30.3433 19 29.6875 19H1.1875Z" fill="#4D565F"/>
<path d="M14.25 17.8125C14.25 17.1567 14.7817 16.625 15.4375 16.625C16.0933 16.625 16.625 17.1567 16.625 17.8125V53.4375C16.625 54.0933 16.0933 54.625 15.4375 54.625C14.7817 54.625 14.25 54.0933 14.25 53.4375V17.8125Z" fill="#4D565F"/>
</g>
<defs>
<clipPath id="clip0">
<rect width="57" height="57" fill="white"/>
</clipPath>
</defs>
</svg>
