<svg width="30" height="44" viewBox="0 0 30 44" fill="none" xmlns="http://www.w3.org/2000/svg">
<path d="M1.15385 2.30747C0.516595 2.30747 0 1.79092 0 1.15373C0 0.516545 0.516595 0 1.15385 0H28.8462C29.4834 0 30 0.516545 30 1.15373C30 1.79092 29.4834 2.30747 28.8462 2.30747H1.15385Z" fill="#4D565F"/>
<path d="M1.15385 9.22988C0.516595 9.22988 0 8.71333 0 8.07614C0 7.43895 0.516595 6.92241 1.15385 6.92241H28.8462C29.4834 6.92241 30 7.43895 30 8.07614C30 8.71333 29.4834 9.22988 28.8462 9.22988H1.15385Z" fill="#4D565F"/>
<path d="M13.8462 8.07614C13.8462 7.43895 14.3627 6.92241 15 6.92241C15.6373 6.92241 16.1538 7.43895 16.1538 8.07614V42.6882C16.1538 43.3254 15.6373 43.8419 15 43.8419C14.3627 43.8419 13.8462 43.3254 13.8462 42.6882V8.07614Z" fill="#4D565F"/>
</svg>
