<svg width="57" height="57" viewBox="0 0 57 57" fill="none" xmlns="http://www.w3.org/2000/svg">
<g clip-path="url(#clip0)">
<path d="M47.1534 2.72472C47.0442 2.61547 46.9112 2.52759 46.7663 2.46584C46.4765 2.34472 46.1488 2.34472 45.859 2.46584C45.7118 2.52522 45.5812 2.61309 45.4719 2.72472L35.9743 12.2223C35.5112 12.6855 35.5112 13.4383 35.9743 13.9015C36.4374 14.3646 37.1903 14.3646 37.6534 13.9015L45.1252 6.42972V27.3131C45.1252 27.9686 45.6572 28.5006 46.3127 28.5006C46.9682 28.5006 47.5002 27.9686 47.5002 27.3131V6.42972L54.9719 13.9015C55.2047 14.1342 55.5087 14.2506 55.8127 14.2506C56.1167 14.2506 56.4207 14.1342 56.6534 13.9038C57.1165 13.4407 57.1165 12.6878 56.6534 12.2247L47.1534 2.72472Z" fill="#27AE60"/>
<path d="M1.1875 11.875C0.531663 11.875 0 11.3433 0 10.6875C0 10.0317 0.531662 9.5 1.1875 9.5H29.6875C30.3433 9.5 30.875 10.0317 30.875 10.6875C30.875 11.3433 30.3433 11.875 29.6875 11.875H1.1875Z" fill="#4D565F"/>
<path d="M1.1875 19C0.531663 19 0 18.4683 0 17.8125C0 17.1567 0.531662 16.625 1.1875 16.625H29.6875C30.3433 16.625 30.875 17.1567 30.875 17.8125C30.875 18.4683 30.3433 19 29.6875 19H1.1875Z" fill="#4D565F"/>
<path d="M14.25 17.8125C14.25 17.1567 14.7817 16.625 15.4375 16.625C16.0933 16.625 16.625 17.1567 16.625 17.8125V53.4375C16.625 54.0933 16.0933 54.625 15.4375 54.625C14.7817 54.625 14.25 54.0933 14.25 53.4375V17.8125Z" fill="#4D565F"/>
</g>
<defs>
<clipPath id="clip0">
<rect width="57" height="57" fill="white"/>
</clipPath>
</defs>
</svg>
