<svg width="148" height="44" viewBox="0 0 148 44" fill="none" xmlns="http://www.w3.org/2000/svg">
<path d="M142.631 43.819H5.1805C3.80677 43.8158 2.49027 43.2684 1.51931 42.2966C0.548337 41.3248 0.00202503 40.0079 0 38.6341L0 5.17722C0.00203019 3.80419 0.548588 2.48802 1.51978 1.51745C2.49096 0.546882 3.80747 0.00115893 5.1805 3.71853e-08H142.631C144.012 -0.000164045 145.337 0.54269 146.321 1.51134C147.305 2.48 147.868 3.79673 147.889 5.17722V38.6341C147.87 40.016 147.307 41.3346 146.323 42.3049C145.339 43.2752 144.013 43.8192 142.631 43.819Z" fill="#A6A6A6"/>
<path d="M146.828 38.6353C146.829 39.1867 146.72 39.7327 146.509 40.2421C146.299 40.7516 145.989 41.2145 145.6 41.6043C145.21 41.9942 144.747 42.3034 144.237 42.5142C143.728 42.7251 143.182 42.8335 142.631 42.8332H5.18014C4.62835 42.8338 4.08184 42.7256 3.57184 42.515C3.06184 42.3043 2.59834 41.9953 2.20781 41.6054C1.81727 41.2156 1.50736 40.7527 1.29576 40.2431C1.08417 39.7334 0.975041 39.1871 0.974609 38.6353V5.17625C0.976061 4.06172 1.41975 2.99332 2.20825 2.20564C2.99675 1.41796 4.06561 0.975387 5.18014 0.975098H142.631C143.182 0.975098 143.728 1.08377 144.238 1.29491C144.748 1.50605 145.211 1.81552 145.601 2.20565C145.991 2.59578 146.3 3.05892 146.511 3.56862C146.722 4.07832 146.831 4.62459 146.831 5.17625V38.6353H146.828Z" fill="black"/>
<path d="M33.0047 21.6729C33.0188 20.6018 33.3035 19.5516 33.8323 18.62C34.3611 17.6884 35.1169 16.9057 36.0293 16.3445C35.4494 15.5166 34.6845 14.8352 33.7954 14.3545C32.9062 13.8738 31.9172 13.6069 30.9069 13.5751C28.7521 13.3484 26.6619 14.8645 25.5643 14.8645C24.4447 14.8645 22.7544 13.597 20.9326 13.6343C19.7544 13.6726 18.6062 14.0157 17.6002 14.6301C16.5941 15.2445 15.7645 16.1092 15.1923 17.1398C12.71 21.4373 14.5613 27.7528 16.9451 31.2265C18.1347 32.9278 19.5249 34.8273 21.3445 34.7605C23.1246 34.6871 23.7896 33.6256 25.9378 33.6256C28.0663 33.6256 28.6907 34.7605 30.5465 34.7211C32.457 34.6904 33.6598 33.0121 34.8079 31.2955C35.6628 30.0836 36.3206 28.7441 36.7567 27.3266C35.6445 26.8578 34.6953 26.0714 34.0279 25.0657C33.3605 24.06 33.0046 22.8798 33.0047 21.6729Z" fill="white"/>
<path d="M29.4987 11.2899C30.5404 10.0399 31.0537 8.43298 30.9294 6.81055C29.3383 6.97797 27.8685 7.73826 26.8126 8.94015C26.2964 9.52745 25.901 10.2108 25.6491 10.951C25.3972 11.6912 25.2938 12.4739 25.3446 13.2541C26.1405 13.2625 26.928 13.09 27.6476 12.7498C28.3671 12.4096 29.0001 11.9104 29.4987 11.2899Z" fill="white"/>
<path d="M58.7667 34.5066H56.2788L54.9161 30.2288H50.1792L48.8811 34.5066H46.459L51.152 19.9368H54.0506L58.7667 34.5066ZM54.5053 28.4278L53.2728 24.6254C53.1428 24.2369 52.8978 23.3214 52.5378 21.879H52.494C52.3479 22.4991 52.1171 23.4145 51.8016 24.6254L50.5966 28.4322L54.5053 28.4278Z" fill="white"/>
<path d="M70.8352 29.1265C70.9201 30.6738 70.4005 32.1935 69.3859 33.3648C68.9791 33.812 68.4813 34.1668 67.926 34.4057C67.3706 34.6445 66.7707 34.7617 66.1663 34.7495C65.5799 34.797 64.9918 34.683 64.4655 34.42C63.9393 34.157 63.4951 33.7549 63.1811 33.2575H63.1373V38.7951H60.7985V27.4602C60.7985 26.3363 60.7696 25.1827 60.7119 23.9996H62.7703L62.9007 25.6658H62.9445C63.2984 25.124 63.774 24.6723 64.3334 24.3468C64.8928 24.0213 65.5205 23.8309 66.1664 23.7909C66.8124 23.7509 67.4588 23.8623 68.0541 24.1163C68.6493 24.3704 69.177 24.7599 69.5951 25.2539C70.4629 26.3525 70.9034 27.7282 70.8352 29.1265ZM68.4558 29.2119C68.4924 28.3171 68.2505 27.4329 67.7635 26.6814C67.5378 26.3522 67.2334 26.0847 66.8779 25.9033C66.5223 25.7219 66.1271 25.6323 65.7281 25.6428C65.1543 25.6426 64.5989 25.8456 64.1605 26.2158C63.6919 26.598 63.3677 27.1285 63.2414 27.7199C63.1769 27.9521 63.1401 28.1911 63.1318 28.4319V30.1847C63.1124 30.8961 63.3638 31.5883 63.8351 32.1215C64.0625 32.3799 64.3443 32.5847 64.6602 32.7213C64.9761 32.8578 65.3184 32.9227 65.6624 32.9113C66.0625 32.9274 66.4602 32.8427 66.8191 32.6651C67.178 32.4875 67.4865 32.2226 67.7164 31.8947C68.2418 31.1018 68.5008 30.162 68.4558 29.2119Z" fill="white"/>
<path d="M82.928 29.1264C83.0131 30.674 82.4929 32.1939 81.4776 33.3648C81.0706 33.8124 80.5725 34.1676 80.0168 34.4064C79.461 34.6453 78.8605 34.7623 78.2558 34.7495C77.6695 34.7971 77.0815 34.6832 76.5554 34.4202C76.0293 34.1571 75.5854 33.755 75.2717 33.2575H75.2279V38.7951H72.8912V27.4602C72.8912 26.3363 72.8624 25.1827 72.8047 23.9996H74.8587L74.9891 25.6658H75.0329C75.3869 25.124 75.8626 24.6723 76.4221 24.3468C76.9816 24.0213 77.6094 23.8309 78.2554 23.7909C78.9014 23.7509 79.5479 23.8623 80.1433 24.1163C80.7386 24.3703 81.2664 24.7599 81.6846 25.2539C82.5524 26.3526 82.994 27.7279 82.928 29.1264ZM80.5486 29.2119C80.5849 28.317 80.3426 27.4328 79.8552 26.6814C79.63 26.3524 79.3261 26.0851 78.9712 25.9037C78.6162 25.7223 78.2215 25.6326 77.8231 25.6428C77.2489 25.6427 76.6932 25.8456 76.2543 26.2158C75.7861 26.598 75.4622 27.1286 75.3363 27.7199C75.2724 27.9522 75.2357 28.1911 75.2268 28.4319V30.1847C75.2077 30.8956 75.4581 31.5875 75.9279 32.1215C76.1557 32.3799 76.4379 32.5847 76.7541 32.7213C77.0704 32.8578 77.413 32.9227 77.7573 32.9113C78.1574 32.9274 78.5552 32.8427 78.9141 32.6651C79.2729 32.4875 79.5815 32.2226 79.8114 31.8947C80.3356 31.1014 80.5935 30.1617 80.5475 29.2119H80.5486Z" fill="white"/>
<path d="M96.4446 30.4231C96.4637 30.9918 96.3576 31.5577 96.1338 32.081C95.9101 32.6042 95.5742 33.0718 95.1498 33.4509C94.0328 34.359 92.6155 34.8141 91.1787 34.7261C89.8585 34.7887 88.5479 34.4737 87.4004 33.8179L87.9416 31.8713C88.9585 32.4894 90.1277 32.8119 91.3178 32.8024C92.0514 32.8464 92.7776 32.6359 93.374 32.2065C93.6125 32.017 93.8032 31.7741 93.9307 31.4975C94.0581 31.2208 94.1189 30.9181 94.108 30.6137C94.1144 30.3364 94.0639 30.0608 93.9597 29.8039C93.8555 29.5469 93.6998 29.314 93.5022 29.1194C92.9167 28.609 92.2319 28.2252 91.4909 27.9922C88.9348 27.0428 87.6589 25.6493 87.6633 23.8119C87.6491 23.2513 87.7625 22.6948 87.995 22.1844C88.2275 21.6741 88.5729 21.2233 89.0053 20.8661C90.0149 20.0606 91.2844 19.6522 92.5743 19.7181C93.7168 19.6782 94.852 19.9158 95.8827 20.4104L95.2988 22.3143C94.4405 21.8583 93.4804 21.6276 92.5086 21.6439C91.8147 21.6022 91.1297 21.8179 90.5849 22.2497C90.3991 22.4142 90.2507 22.6167 90.15 22.8435C90.0492 23.0703 89.9984 23.3161 90.001 23.5643C89.9962 23.8371 90.054 24.1073 90.17 24.3542C90.2861 24.6011 90.4573 24.8181 90.6704 24.9884C91.3109 25.477 92.0254 25.8601 92.7868 26.1233C93.834 26.4926 94.7815 27.0993 95.5551 27.8958C96.1567 28.5976 96.474 29.4991 96.4446 30.4231Z" fill="white"/>
<path d="M104.166 25.7519H101.591V30.8557C101.591 32.1535 102.046 32.8024 102.954 32.8024C103.303 32.8096 103.652 32.7728 103.991 32.6929L104.056 34.4664C103.47 34.6577 102.856 34.7452 102.24 34.725C101.84 34.7472 101.44 34.6834 101.067 34.5379C100.693 34.3924 100.356 34.1685 100.076 33.8814C99.4791 33.0637 99.202 32.0555 99.2973 31.0475V25.7497H97.7637V23.997H99.2973V22.0722L101.591 21.3799V23.997H104.166V25.7519Z" fill="white"/>
<path d="M115.782 29.169C115.839 30.6228 115.344 32.0444 114.397 33.1488C113.91 33.6801 113.313 34.0987 112.648 34.3751C111.983 34.6516 111.265 34.7793 110.545 34.7493C109.856 34.7799 109.168 34.6584 108.531 34.3933C107.894 34.1282 107.323 33.7262 106.859 33.2157C105.926 32.1465 105.435 30.7623 105.485 29.3442C105.426 27.8782 105.933 26.4456 106.902 25.3436C107.387 24.8224 107.979 24.413 108.638 24.144C109.297 23.875 110.007 23.7528 110.718 23.7858C111.413 23.7564 112.106 23.8783 112.749 24.1431C113.392 24.4079 113.97 24.8093 114.443 25.3195C115.363 26.3852 115.842 27.7621 115.782 29.169ZM113.358 29.2446C113.384 28.3712 113.167 27.5078 112.732 26.7502C112.535 26.3651 112.234 26.0431 111.864 25.8208C111.493 25.5984 111.067 25.4847 110.635 25.4926C110.196 25.4803 109.762 25.5917 109.384 25.8141C109.005 26.0365 108.697 26.3608 108.493 26.7502C108.055 27.5223 107.838 28.4007 107.867 29.2884C107.841 30.1614 108.058 31.0245 108.493 31.7817C108.698 32.1637 109.004 32.4826 109.376 32.7041C109.749 32.9257 110.175 33.0416 110.609 33.0393C111.042 33.0371 111.467 32.9168 111.837 32.6913C112.208 32.4659 112.51 32.1439 112.711 31.7598C113.156 30.9992 113.38 30.1298 113.358 29.2489V29.2446Z" fill="white"/>
<path d="M123.373 26.0533C123.13 26.0094 122.884 25.9878 122.637 25.9887C122.267 25.9716 121.899 26.0479 121.566 26.2107C121.233 26.3734 120.947 26.6173 120.733 26.9198C120.324 27.5348 120.12 28.2632 120.149 29.0012V34.5071H117.815L117.837 27.3054C117.837 26.0938 117.807 24.9907 117.749 23.996H119.783L119.869 26.0073H119.933C120.154 25.3514 120.56 24.7733 121.101 24.3422C121.589 23.9775 122.181 23.78 122.789 23.7791C122.985 23.7781 123.18 23.7924 123.373 23.8218V26.0533Z" fill="white"/>
<path d="M133.819 28.7583C133.825 29.1134 133.796 29.4682 133.734 29.8177H126.723C126.707 30.2647 126.79 30.7097 126.966 31.1211C127.141 31.5325 127.406 31.9002 127.739 32.1981C128.391 32.7087 129.204 32.9694 130.031 32.9332C130.999 32.9459 131.96 32.7772 132.866 32.4359L133.232 34.0572C132.114 34.5141 130.915 34.7353 129.708 34.7068C129.003 34.7456 128.298 34.6378 127.637 34.3903C126.975 34.1427 126.373 33.7607 125.867 33.2684C125.39 32.7496 125.021 32.1411 124.782 31.4783C124.542 30.8156 124.437 30.1118 124.472 29.408C124.421 27.9761 124.882 26.5729 125.772 25.45C126.209 24.9003 126.77 24.4613 127.408 24.1684C128.047 23.8755 128.745 23.737 129.447 23.7641C130.117 23.7269 130.785 23.8624 131.388 24.1576C131.99 24.4528 132.507 24.8979 132.888 25.45C133.532 26.4303 133.857 27.5859 133.819 28.7583ZM131.592 28.1525C131.622 27.5223 131.465 26.8972 131.138 26.3571C130.946 26.041 130.67 25.7834 130.342 25.6118C130.014 25.4403 129.646 25.3612 129.276 25.3832C128.911 25.3763 128.55 25.4596 128.226 25.6257C127.901 25.7917 127.622 26.0354 127.414 26.3352C127.016 26.8628 126.776 27.4927 126.723 28.1514H131.588L131.592 28.1525Z" fill="white"/>
<path d="M47.5698 7.96733C47.8363 7.81045 48.1196 7.68404 48.4144 7.59048C48.7742 7.48094 49.1491 7.42882 49.5252 7.43602C50.1072 7.40342 50.6823 7.57635 51.1498 7.9246C51.344 8.08265 51.4988 8.28367 51.6021 8.51181C51.7053 8.73994 51.7541 8.98895 51.7446 9.23918C51.7568 9.64469 51.6147 10.0397 51.347 10.3445C51.0789 10.644 50.7238 10.852 50.3314 10.9394V10.9711C50.5529 11.0053 50.769 11.0679 50.9745 11.1574C51.172 11.2423 51.3521 11.363 51.5058 11.5134C51.6584 11.6626 51.7811 11.8396 51.8673 12.0348C51.9571 12.2422 52.0022 12.4661 51.9999 12.6921C52.0117 13.0407 51.9288 13.386 51.7599 13.6912C51.6041 13.9553 51.3897 14.1802 51.1333 14.3485C50.8692 14.5214 50.576 14.6454 50.2679 14.7144C49.9543 14.787 49.6335 14.8237 49.3116 14.8239C48.972 14.8226 48.6335 14.7859 48.3015 14.7144C47.9767 14.6471 47.6647 14.5288 47.377 14.3638L47.664 13.4874C47.8932 13.5965 48.1315 13.6856 48.376 13.7536C48.6623 13.8382 48.9593 13.881 49.2579 13.8807C49.6619 13.9067 50.0623 13.7904 50.3895 13.5521C50.5938 13.3678 50.7288 13.1192 50.7723 12.8476C50.8157 12.576 50.7649 12.2977 50.6283 12.0589C50.5228 11.901 50.3803 11.7713 50.2131 11.681C50.0355 11.5863 49.8434 11.5219 49.6446 11.4904C49.4394 11.4553 49.2316 11.4373 49.0235 11.4367H48.5447V10.5603H49.0235C49.2303 10.5626 49.4364 10.5338 49.6347 10.4749C49.8104 10.4247 49.9758 10.3438 50.1233 10.2361C50.2582 10.139 50.3703 10.0138 50.452 9.86907C50.5305 9.72189 50.5705 9.55718 50.5681 9.39035C50.5745 9.24742 50.547 9.10501 50.4877 8.97477C50.4285 8.84453 50.3393 8.73017 50.2274 8.64105C49.9631 8.44823 49.6405 8.3523 49.3138 8.36937C49.0465 8.37036 48.7811 8.41324 48.5272 8.49644C48.2874 8.57314 48.0528 8.66536 47.825 8.7725L47.5698 7.96733Z" fill="white"/>
<path d="M56.6966 14.7154L56.6122 14.1206H56.5805C56.408 14.3552 56.1798 14.5432 55.9164 14.6675C55.653 14.7919 55.3628 14.8486 55.072 14.8326C54.8539 14.8354 54.6373 14.7956 54.4344 14.7154C54.2492 14.6418 54.0797 14.5336 53.9349 14.3966C53.7933 14.2616 53.6813 14.0986 53.6063 13.9179C53.5272 13.7258 53.4877 13.5198 53.4901 13.3121C53.4761 13.0215 53.542 12.7327 53.6807 12.4769C53.8193 12.2212 54.0255 12.0084 54.2767 11.8617C54.9631 11.5016 55.7343 11.3346 56.5082 11.3786V11.2833C56.5082 10.6026 56.1511 10.2627 55.4368 10.2634C54.96 10.2543 54.4913 10.3874 54.0905 10.6457L53.8571 9.89203C54.3935 9.57867 55.0077 9.42405 55.6285 9.44617C56.9796 9.44617 57.6551 10.1582 57.6551 11.5823V13.4841C57.6474 13.8962 57.6723 14.3083 57.7296 14.7165H56.6977L56.6966 14.7154ZM56.5378 12.1443C56.0481 12.1158 55.5584 12.1993 55.106 12.3886C54.9576 12.4602 54.8338 12.5742 54.7501 12.7161C54.6665 12.8581 54.6268 13.0216 54.636 13.1861C54.6271 13.2969 54.6421 13.4083 54.6799 13.5128C54.7177 13.6173 54.7774 13.7125 54.8551 13.7919C55.0092 13.9288 55.2101 14.001 55.416 13.9935C55.5608 13.9942 55.7043 13.967 55.8388 13.9135C55.9687 13.8625 56.0883 13.7883 56.1916 13.6944C56.2958 13.6 56.3807 13.4861 56.4414 13.3592C56.5045 13.2284 56.5367 13.0849 56.5356 12.9396L56.5378 12.1443Z" fill="white"/>
<path d="M63.1906 9.55151V10.4969H61.0434V14.7156H59.8965V9.55151H63.1906Z" fill="white"/>
<path d="M69.7567 12.0698C69.7609 12.4519 69.7036 12.8321 69.5869 13.196C69.4866 13.5157 69.326 13.8132 69.1136 14.0723C68.9134 14.3159 68.6609 14.5112 68.375 14.644C68.089 14.7767 67.7769 14.8434 67.4616 14.8392C67.1735 14.8625 66.8846 14.8065 66.626 14.6773C66.3675 14.5481 66.1492 14.3507 65.9948 14.1063H65.9729V16.8264H64.8248V11.2515C64.8248 10.9754 64.8212 10.6972 64.8139 10.4167C64.8073 10.1374 64.7963 9.8482 64.7832 9.55023H65.7921L65.8568 10.3685H65.8787C66.0578 10.0706 66.3146 9.82709 66.6217 9.66419C66.9288 9.50129 67.2745 9.42515 67.6216 9.44397C67.9149 9.44289 68.2044 9.51002 68.4673 9.64006C68.7275 9.7695 68.9574 9.95242 69.1421 10.1768C69.3425 10.423 69.4956 10.7041 69.5934 11.0061C69.7055 11.3494 69.7606 11.7087 69.7567 12.0698ZM68.5889 12.1125C68.5909 11.874 68.5603 11.6363 68.498 11.406C68.445 11.2083 68.3551 11.0224 68.2329 10.8582C68.1191 10.7083 67.9741 10.5849 67.8078 10.4967C67.6481 10.4143 67.4718 10.369 67.2921 10.3645C67.1124 10.3599 66.9341 10.3962 66.7704 10.4704C66.6169 10.5388 66.4782 10.6363 66.3618 10.7574C66.112 11.0219 65.9728 11.3719 65.9729 11.7357V12.5967C65.9709 12.7779 66.0017 12.9579 66.0638 13.128C66.1201 13.2849 66.2065 13.4292 66.318 13.5531C66.4276 13.6737 66.5617 13.7697 66.7112 13.8346C66.8702 13.9036 67.0419 13.9379 67.2152 13.9354C67.4113 13.9437 67.6065 13.9029 67.7829 13.8166C67.9593 13.7303 68.1113 13.6013 68.2252 13.4414C68.4856 13.0488 68.6131 12.583 68.5889 12.1125Z" fill="white"/>
<path d="M75.9225 9.55151L74.6145 13.1326C74.3615 13.8492 74.0581 14.547 73.7063 15.2206C73.4886 15.6575 73.2036 16.0575 72.8617 16.4059C72.5101 16.7376 72.0712 16.9622 71.5965 17.0533L71.3204 16.0871C71.6344 16.0004 71.9249 15.8443 72.1705 15.6303C72.4446 15.3962 72.6657 15.1064 72.819 14.7802C72.8618 14.7086 72.8905 14.6294 72.9034 14.5469C72.893 14.463 72.8716 14.3809 72.8398 14.3026L70.9688 9.55261H72.2329L73.2112 12.4326C73.2616 12.5674 73.3109 12.7196 73.3602 12.8894C73.4095 13.0592 73.4632 13.2476 73.5201 13.4525H73.542C73.5771 13.343 73.6165 13.1962 73.6581 13.022C73.6998 12.8478 73.7578 12.6484 73.8279 12.4217L74.7043 9.55261H75.9269L75.9225 9.55151Z" fill="white"/>
<path d="M77.9093 11.6974H78.4362C78.7514 11.7164 79.0653 11.6425 79.3389 11.4848C79.4325 11.4328 79.511 11.3574 79.5669 11.266C79.6227 11.1747 79.654 11.0704 79.6577 10.9634C79.6597 10.8624 79.6358 10.7625 79.5882 10.6733C79.5406 10.5841 79.471 10.5086 79.386 10.454C79.1619 10.3145 78.9002 10.2476 78.6367 10.2623C78.426 10.2632 78.2168 10.2972 78.0167 10.3631C77.8159 10.4274 77.6218 10.5111 77.4372 10.6128L77.1436 9.87011C77.4213 9.71488 77.7208 9.60225 78.032 9.53599C78.3236 9.47573 78.6205 9.44527 78.9182 9.44507C79.1558 9.44528 79.3928 9.4684 79.6259 9.51408C79.8481 9.55493 80.0616 9.63387 80.2569 9.74742C80.4387 9.85398 80.5932 10.0014 80.7083 10.1779C80.8305 10.3748 80.8915 10.6036 80.8835 10.8352C80.8869 10.9844 80.8538 11.1322 80.7871 11.2657C80.7238 11.3903 80.6375 11.5017 80.533 11.5944C80.4275 11.6901 80.3077 11.7688 80.178 11.8277C80.0508 11.8867 79.9174 11.9316 79.7804 11.9614V11.9931C79.9498 12.0151 80.1157 12.0582 80.2744 12.1213C80.4295 12.1829 80.5745 12.2671 80.705 12.3711C80.8308 12.4737 80.9353 12.5998 81.0128 12.7424C81.0893 12.8957 81.1269 13.0653 81.1223 13.2365C81.1344 13.5091 81.0575 13.7782 80.9032 14.0033C80.7548 14.2091 80.5595 14.3765 80.3336 14.4919C80.0947 14.6155 79.8389 14.7033 79.5744 14.7526C79.3088 14.8045 79.0388 14.8313 78.7682 14.8326C78.4503 14.8326 78.1334 14.7988 77.8228 14.7318C77.5281 14.6706 77.2444 14.565 76.9814 14.4185L77.2805 13.6637C77.4809 13.7702 77.6925 13.8539 77.9115 13.9135C78.1482 13.9804 78.393 14.0143 78.6389 14.0143C78.9548 14.0343 79.269 13.9546 79.5372 13.7864C79.6322 13.7249 79.7104 13.6407 79.7649 13.5415C79.8194 13.4423 79.8484 13.3311 79.8494 13.2179C79.853 13.0839 79.8147 12.9522 79.7399 12.841C79.6636 12.734 79.5614 12.6481 79.443 12.5913C79.3021 12.5234 79.1512 12.4786 78.996 12.4587C78.8146 12.433 78.6315 12.4206 78.4483 12.4215H77.9071L77.9093 11.6974Z" fill="white"/>
<path d="M84.0397 9.55175V11.379C84.0397 11.7975 84.0331 12.1732 84.0178 12.5052C84.0024 12.8371 83.986 13.1887 83.9641 13.5568L83.986 13.5776C84.1208 13.3081 84.2533 13.0452 84.3837 12.7856C84.514 12.526 84.6488 12.2631 84.7835 11.9936L86.0586 9.54956H87.5452V14.7136H86.4607V12.8864C86.4607 12.5041 86.4716 12.1195 86.4881 11.7394C86.5045 11.3593 86.5242 10.9726 86.5461 10.5804H86.4925C86.3885 10.8637 86.2678 11.1407 86.131 11.4097C86.0115 11.643 85.891 11.884 85.7716 12.1327C85.5525 12.5577 85.3334 12.9828 85.1143 13.4078C84.8953 13.8329 84.667 14.2685 84.4297 14.7147H82.9453V9.55175H84.0397Z" fill="white"/>
<path d="M93.6033 9.55151V10.4969H92.0313V14.7156H90.903V10.4969H89.3408V9.55151H93.6033Z" fill="white"/>
<path d="M99.4575 11.8889C99.4575 11.9875 99.4575 12.0817 99.4466 12.1704C99.441 12.2506 99.4304 12.3304 99.4148 12.4092H95.9717C95.966 12.6196 96.0041 12.8289 96.0837 13.0237C96.1633 13.2186 96.2826 13.3947 96.434 13.5409C96.7571 13.8168 97.173 13.9594 97.5974 13.9396C98.0726 13.9447 98.5447 13.8619 98.9898 13.6953L99.1694 14.4928C98.6197 14.7169 98.0298 14.8254 97.4364 14.8116C97.0672 14.8173 96.7001 14.7541 96.354 14.6254C96.0496 14.5109 95.7737 14.3315 95.5456 14.0996C95.322 13.865 95.15 13.5863 95.0406 13.2812C94.921 12.9365 94.8625 12.5736 94.8675 12.2088C94.8645 11.8366 94.9229 11.4664 95.0406 11.1133C95.1491 10.7929 95.3166 10.4956 95.5346 10.2369C95.7463 9.99019 96.0076 9.79086 96.3015 9.65193C96.6168 9.5075 96.9603 9.43491 97.3071 9.43941C97.6122 9.43533 97.9148 9.49503 98.1955 9.61468C98.4566 9.72753 98.6885 9.89837 98.8736 10.1142C99.0679 10.3411 99.2144 10.6049 99.3042 10.8898C99.4089 11.2124 99.4606 11.5498 99.4575 11.8889ZM98.3621 11.592C98.3795 11.2398 98.2767 10.8922 98.0707 10.6061C97.9704 10.4801 97.8413 10.3801 97.6943 10.3143C97.5474 10.2486 97.3868 10.219 97.226 10.2281C97.0652 10.2263 96.906 10.2595 96.7593 10.3256C96.6127 10.3916 96.4822 10.4888 96.377 10.6105C96.1366 10.8821 95.9942 11.2266 95.9728 11.5887L98.3621 11.592Z" fill="white"/>
<path d="M104.081 9.59402C104.287 9.55897 104.548 9.53049 104.867 9.50858C105.185 9.48667 105.511 9.47681 105.845 9.47681C106.056 9.47681 106.296 9.48995 106.561 9.51405C106.821 9.53682 107.076 9.59392 107.32 9.68385C107.552 9.76572 107.76 9.90257 107.926 10.0826C108.098 10.2825 108.187 10.5411 108.173 10.8045C108.175 10.9489 108.146 11.092 108.087 11.2241C108.032 11.3471 107.955 11.4586 107.858 11.5527C107.761 11.6456 107.651 11.7226 107.53 11.7806C107.407 11.8412 107.276 11.8857 107.142 11.9131L107.153 11.9449C107.489 11.991 107.806 12.1311 108.066 12.3491C108.184 12.4561 108.277 12.5878 108.337 12.7348C108.398 12.8818 108.425 13.0404 108.417 13.1992C108.433 13.5138 108.326 13.8223 108.12 14.0603C107.917 14.276 107.665 14.4401 107.386 14.539C107.09 14.6467 106.78 14.7148 106.466 14.7417C106.145 14.769 105.856 14.7844 105.602 14.7844C105.317 14.7844 105.038 14.7778 104.767 14.7625C104.495 14.7471 104.266 14.734 104.082 14.7198L104.081 9.59402ZM105.185 11.6557H105.769C105.938 11.6565 106.107 11.6441 106.274 11.6185C106.419 11.5983 106.56 11.5592 106.694 11.5023C106.804 11.4565 106.902 11.3834 106.976 11.2898C107.046 11.1948 107.082 11.079 107.077 10.9612C107.083 10.8562 107.058 10.7519 107.006 10.6606C106.954 10.5693 106.877 10.4949 106.784 10.4463C106.495 10.3181 106.18 10.2617 105.866 10.282C105.746 10.282 105.641 10.282 105.551 10.2929L105.185 10.3247V11.6557ZM105.185 13.9398C105.327 13.954 105.446 13.9639 105.54 13.9715C105.634 13.9792 105.747 13.9825 105.877 13.9825C106.036 13.9826 106.196 13.972 106.354 13.9507C106.508 13.9323 106.659 13.8913 106.801 13.8291C106.929 13.777 107.042 13.6934 107.13 13.5859C107.216 13.4687 107.26 13.3252 107.254 13.1795C107.262 13.0489 107.228 12.919 107.157 12.8089C107.087 12.6987 106.982 12.614 106.86 12.5671C106.52 12.4411 106.159 12.3837 105.797 12.3984H105.191V13.9398H105.185Z" fill="white"/>
</svg>
