<svg width="20" height="20" viewBox="0 0 20 20" fill="none" xmlns="http://www.w3.org/2000/svg">
<path d="M10 20C15.5228 20 20 15.5228 20 10C20 4.47715 15.5228 0 10 0C4.47715 0 0 4.47715 0 10C0 15.5228 4.47715 20 10 20Z" fill="#249052"/>
<path d="M14.978 12.748C14.95 12.6627 14.77 12.5374 14.438 12.372C14.348 12.32 14.2203 12.249 14.055 12.159C13.8897 12.069 13.7393 11.986 13.604 11.91C13.4707 11.834 13.344 11.7607 13.224 11.69L13.046 11.566C12.9646 11.5087 12.879 11.4576 12.79 11.413C12.7279 11.3816 12.6596 11.3645 12.59 11.363C12.4516 11.3853 12.3258 11.4563 12.235 11.563C12.0924 11.6983 11.9616 11.8455 11.844 12.003C11.7287 12.158 11.6031 12.305 11.468 12.443C11.3871 12.5474 11.2708 12.6185 11.141 12.643C11.0861 12.6406 11.032 12.6287 10.981 12.608C10.917 12.584 10.869 12.564 10.835 12.548C10.801 12.532 10.745 12.498 10.665 12.448L10.53 12.366C9.91985 12.0355 9.35878 11.6215 8.863 11.136C8.37554 10.64 7.95985 10.0782 7.628 9.46704C7.62334 9.45771 7.596 9.41271 7.546 9.33204C7.496 9.25137 7.46267 9.19471 7.446 9.16204C7.42352 9.11443 7.40349 9.0657 7.386 9.01604C7.36527 8.9651 7.35344 8.91098 7.351 8.85604C7.37553 8.72628 7.44666 8.60998 7.551 8.52904C7.68869 8.39395 7.83536 8.26833 7.99 8.15304C8.14752 8.03545 8.29472 7.90465 8.43 7.76204C8.53678 7.67127 8.60769 7.5454 8.63 7.40704C8.62854 7.33747 8.61146 7.26911 8.58 7.20704C8.53535 7.11934 8.48421 7.03511 8.427 6.95504C8.36034 6.85571 8.319 6.79637 8.303 6.77704C8.23634 6.65904 8.16534 6.53337 8.09 6.40004C8.01467 6.26671 7.93167 6.11504 7.841 5.94504C7.751 5.78171 7.68 5.65371 7.628 5.56104C7.46267 5.22771 7.33734 5.04771 7.252 5.02104C7.2038 5.00455 7.15288 4.99742 7.102 5.00004C6.93326 5.0056 6.76562 5.0294 6.602 5.07104C6.4355 5.10587 6.27249 5.15574 6.115 5.22004C5.78074 5.42419 5.51774 5.72666 5.362 6.08604C5.13197 6.48884 5.00745 6.94324 5 7.40704C4.99984 7.5318 5.0082 7.65642 5.025 7.78004C5.04536 7.91791 5.07509 8.05422 5.114 8.18804C5.15667 8.33937 5.19 8.45171 5.214 8.52504C5.238 8.59837 5.28667 8.72971 5.36 8.91904C5.43267 9.10637 5.476 9.22271 5.49 9.26804C5.64135 9.70223 5.83881 10.1189 6.079 10.511C6.51532 11.1942 7.02905 11.8247 7.61 12.39C8.17572 12.9707 8.80656 13.4841 9.49 13.92C9.88209 14.1605 10.2988 14.3583 10.733 14.51C10.7757 14.524 10.8917 14.5667 11.081 14.638C11.2703 14.7094 11.4017 14.758 11.475 14.784C11.5483 14.81 11.6607 14.8434 11.812 14.884C11.9458 14.9229 12.0822 14.9526 12.22 14.973C12.8065 15.0543 13.4033 14.9356 13.914 14.636C14.2734 14.4803 14.5758 14.2173 14.78 13.883C14.8438 13.7268 14.8933 13.5652 14.928 13.4C14.9697 13.2364 14.9935 13.0688 14.999 12.9C15.0019 12.8485 14.9947 12.7969 14.978 12.748Z" fill="white"/>
</svg>
