<svg width="20" height="20" viewBox="0 0 20 20" fill="none" xmlns="http://www.w3.org/2000/svg">
<path d="M10 20C15.5228 20 20 15.5228 20 10C20 4.47715 15.5228 0 10 0C4.47715 0 0 4.47715 0 10C0 15.5228 4.47715 20 10 20Z" fill="#249052"/>
<path d="M5.96073 8.42319C6.08739 8.51253 6.46873 8.77919 7.10473 9.22319C7.74073 9.66719 8.22806 10.0065 8.56673 10.2412L8.80373 10.4112C8.92439 10.4985 9.02439 10.5692 9.10373 10.6232C9.18306 10.6772 9.27973 10.7375 9.39373 10.8042C9.49511 10.8657 9.60271 10.9163 9.71473 10.9552C9.80443 10.9868 9.89864 11.0036 9.99373 11.0052H10.0047C10.0998 11.0036 10.194 10.9867 10.2837 10.9552C10.3957 10.9163 10.5033 10.8657 10.6047 10.8042C10.7181 10.7375 10.8147 10.6772 10.8947 10.6232C10.9747 10.5692 11.0747 10.4985 11.1947 10.4112L11.4317 10.2412L14.0437 8.42719C14.3109 8.24219 14.5417 8.00966 14.7247 7.74119C14.9019 7.49408 14.9983 7.19824 15.0007 6.89419C14.9989 6.65792 14.9042 6.43184 14.7372 6.26477C14.5701 6.09769 14.344 6.00302 14.1077 6.00119H5.89373C5.76853 5.99435 5.64348 6.01703 5.52866 6.0674C5.41384 6.11778 5.31247 6.19444 5.23273 6.29119C5.07335 6.49887 4.99132 6.75558 5.00073 7.01719C5.01801 7.2977 5.12572 7.56505 5.30773 7.77919C5.4881 8.02865 5.70879 8.2463 5.96073 8.42319Z" fill="white"/>
<path d="M14.4421 9.01918C13.2221 9.84518 12.2958 10.4869 11.6631 10.9442C11.4511 11.1002 11.2791 11.2219 11.1471 11.3092C10.9801 11.4147 10.8037 11.5044 10.6201 11.5772C10.4265 11.6629 10.2178 11.7094 10.0061 11.7142H9.9941C9.78241 11.7094 9.57374 11.6629 9.3801 11.5772C9.19651 11.5044 9.02008 11.4147 8.8531 11.3092C8.71977 11.2219 8.54777 11.1002 8.3371 10.9442C7.8351 10.5762 6.91077 9.93451 5.5641 9.01918C5.35643 8.88191 5.16693 8.71895 5.0001 8.53418V12.9652C4.99829 13.0827 5.0206 13.1993 5.06567 13.3078C5.11073 13.4164 5.17759 13.5145 5.2621 13.5962C5.3438 13.6806 5.44194 13.7475 5.55047 13.7925C5.65899 13.8376 5.77561 13.8599 5.8931 13.8582H14.1071C14.3434 13.8564 14.5695 13.7617 14.7365 13.5946C14.9036 13.4275 14.9983 13.2015 15.0001 12.9652V8.53418C14.8343 8.71769 14.6469 8.88053 14.4421 9.01918Z" fill="white"/>
</svg>
