<svg width="149" height="44" viewBox="0 0 149 44" fill="none" xmlns="http://www.w3.org/2000/svg">
<path d="M143.3 0H6.36605C3.34098 0 0.888672 2.45231 0.888672 5.47738V38.3416C0.888672 41.3667 3.34098 43.819 6.36605 43.819H143.3C146.326 43.819 148.778 41.3667 148.778 38.3416V5.47738C148.778 2.45231 146.326 0 143.3 0Z" fill="black"/>
<path d="M143.3 0.876381C144.521 0.876381 145.691 1.36113 146.554 2.22398C147.417 3.08684 147.901 4.25712 147.901 5.47738V38.3416C147.901 39.5619 147.417 40.7322 146.554 41.595C145.691 42.4579 144.521 42.9426 143.3 42.9426H6.36605C5.14579 42.9426 3.97551 42.4579 3.11265 41.595C2.2498 40.7322 1.76505 39.5619 1.76505 38.3416V5.47738C1.76505 4.25712 2.2498 3.08684 3.11265 2.22398C3.97551 1.36113 5.14579 0.876381 6.36605 0.876381H143.3ZM143.3 0H6.36605C4.91469 0.0043346 3.52402 0.582805 2.49775 1.60907C1.47148 2.63534 0.893006 4.02602 0.888672 5.47738V38.3416C0.893006 39.793 1.47148 41.1837 2.49775 42.2099C3.52402 43.2362 4.91469 43.8147 6.36605 43.819H143.3C144.752 43.8147 146.142 43.2362 147.169 42.2099C148.195 41.1837 148.773 39.793 148.778 38.3416V5.47738C148.773 4.02602 148.195 2.63534 147.169 1.60907C146.142 0.582805 144.752 0.0043346 143.3 0Z" fill="#A6A6A6"/>
<path d="M75.5297 23.8288C74.6087 23.8312 73.7091 24.1065 72.9445 24.6199C72.1799 25.1333 71.5847 25.8617 71.2339 26.7133C70.8831 27.5648 70.7925 28.5012 70.9737 29.4042C71.1548 30.3072 71.5995 31.1362 72.2515 31.7866C72.9036 32.437 73.7338 32.8795 74.6372 33.0583C75.5407 33.2371 76.4768 33.1441 77.3274 32.7911C78.1781 32.4382 78.905 31.841 79.4164 31.0751C79.9278 30.3092 80.2008 29.4089 80.2008 28.4879C80.2098 27.8725 80.0951 27.2616 79.8634 26.6915C79.6317 26.1214 79.2878 25.6036 78.8521 25.169C78.4163 24.7344 77.8977 24.3918 77.3269 24.1616C76.7562 23.9314 76.145 23.8182 75.5297 23.8288ZM75.5297 31.3109C74.9626 31.3514 74.3966 31.2202 73.9051 30.9345C73.4137 30.6487 73.0197 30.2216 72.7744 29.7087C72.5292 29.1959 72.444 28.6211 72.53 28.0592C72.616 27.4972 72.8692 26.9742 73.2566 26.5582C73.6441 26.1422 74.1478 25.8525 74.7022 25.7268C75.2566 25.6011 75.836 25.6452 76.3649 25.8534C76.8939 26.0616 77.3479 26.4243 77.6679 26.8942C77.9878 27.3641 78.1589 27.9194 78.1588 28.4879C78.176 28.847 78.1212 29.2058 77.9976 29.5434C77.874 29.8809 77.6841 30.1904 77.4391 30.4534C77.1941 30.7165 76.899 30.9279 76.5711 31.0751C76.2431 31.2224 75.8891 31.3026 75.5297 31.3109ZM65.3275 23.8288C64.4068 23.8323 63.5077 24.1085 62.7439 24.6225C61.98 25.1366 61.3856 25.8654 61.0356 26.7171C60.6857 27.5687 60.5959 28.5049 60.7777 29.4075C60.9594 30.3101 61.4045 31.1387 62.0568 31.7885C62.7091 32.4383 63.5392 32.8803 64.4425 33.0587C65.3458 33.237 66.2817 33.1437 67.132 32.7906C67.9823 32.4375 68.7089 31.8403 69.2201 31.0745C69.7313 30.3087 70.0041 29.4086 70.0041 28.4879C70.0132 27.8721 69.8983 27.2607 69.6662 26.6902C69.4342 26.1197 69.0898 25.6017 68.6535 25.167C68.2171 24.7323 67.6978 24.3898 67.1265 24.16C66.5551 23.9301 65.9433 23.8175 65.3275 23.8288ZM65.3275 31.3109C64.7605 31.3514 64.1944 31.2202 63.703 30.9345C63.2115 30.6487 62.8175 30.2216 62.5723 29.7087C62.327 29.1959 62.2418 28.6211 62.3278 28.0592C62.4138 27.4972 62.667 26.9742 63.0545 26.5582C63.4419 26.1422 63.9456 25.8525 64.5 25.7268C65.0544 25.6011 65.6338 25.6452 66.1628 25.8534C66.6918 26.0616 67.1458 26.4243 67.4657 26.8942C67.7857 27.3641 67.9568 27.9194 67.9567 28.4879C67.9738 28.847 67.919 29.2058 67.7954 29.5434C67.6718 29.8809 67.4819 30.1904 67.237 30.4534C66.992 30.7165 66.6968 30.9279 66.3689 31.0751C66.041 31.2224 65.6869 31.3026 65.3275 31.3109ZM53.1907 25.2584V27.2303H57.9199C57.8518 28.1571 57.4728 29.0337 56.8442 29.7181C56.3702 30.2013 55.8001 30.5797 55.1709 30.829C54.5416 31.0782 53.867 31.1928 53.1907 31.1652C51.7962 31.1652 50.4587 30.6112 49.4726 29.6251C48.4865 28.639 47.9325 27.3015 47.9325 25.907C47.9325 24.5124 48.4865 23.1749 49.4726 22.1888C50.4587 21.2027 51.7962 20.6487 53.1907 20.6487C54.5198 20.6316 55.8019 21.1403 56.7576 22.064L58.1521 20.6695C57.4997 20.0239 56.7251 19.515 55.8735 19.1724C55.022 18.8299 54.1107 18.6607 53.1929 18.6746C52.2352 18.6628 51.2846 18.8413 50.3963 19.1997C49.5081 19.558 48.6998 20.0892 48.0183 20.7623C47.3369 21.4354 46.7959 22.2371 46.4266 23.1209C46.0573 24.0047 45.8672 24.953 45.8672 25.9108C45.8672 26.8686 46.0573 27.8169 46.4266 28.7007C46.7959 29.5845 47.3369 30.3862 48.0183 31.0593C48.6998 31.7324 49.5081 32.2635 50.3963 32.6219C51.2846 32.9803 52.2352 33.1587 53.1929 33.147C54.13 33.1849 55.0645 33.023 55.9343 32.672C56.804 32.3211 57.5892 31.7892 58.2376 31.1116C59.3906 29.8532 60.0052 28.1934 59.9498 26.4876C59.9534 26.0734 59.9167 25.66 59.8403 25.253L53.1907 25.2584ZM102.825 26.7921C102.544 25.9483 102.011 25.2112 101.298 24.6808C100.584 24.1505 99.7247 23.8526 98.8359 23.8277C98.2372 23.8314 97.6454 23.9564 97.0964 24.1953C96.5474 24.4342 96.0525 24.782 95.6417 25.2176C95.231 25.6532 94.9129 26.1677 94.7067 26.7298C94.5004 27.2919 94.4104 27.89 94.442 28.4879C94.4285 29.1005 94.5386 29.7094 94.7658 30.2785C94.993 30.8475 95.3325 31.3649 95.7641 31.7998C96.1957 32.2347 96.7106 32.5781 97.2779 32.8096C97.8452 33.041 98.4533 33.1558 99.066 33.147C99.8335 33.1512 100.59 32.9647 101.268 32.6043C101.945 32.2439 102.523 31.7208 102.948 31.082L101.36 30.0227C101.122 30.4177 100.785 30.7442 100.383 30.97C99.9811 31.1958 99.5272 31.3133 99.066 31.3109C98.5913 31.3291 98.1221 31.2043 97.7191 30.9528C97.3162 30.7012 96.9981 30.3344 96.806 29.9L103.036 27.3223L102.825 26.7921ZM96.4708 28.3455C96.4498 28.0069 96.4964 27.6676 96.6079 27.3472C96.7194 27.0268 96.8936 26.7319 97.1202 26.4795C97.3469 26.2272 97.6215 26.0224 97.9281 25.8773C98.2347 25.7322 98.5672 25.6495 98.906 25.6342C99.2593 25.6104 99.6118 25.6912 99.9194 25.8666C100.227 26.0419 100.476 26.304 100.636 26.6201L96.4708 28.3455ZM91.4064 32.8643H93.456V19.1709H91.4064V32.8643ZM88.0521 24.8673H87.9787C87.6674 24.5294 87.2876 24.2617 86.8646 24.0823C86.4416 23.9028 85.9852 23.8156 85.5259 23.8266C84.3252 23.8787 83.191 24.3924 82.3597 25.2604C81.5285 26.1284 81.0646 27.2839 81.0646 28.4857C81.0646 29.6875 81.5285 30.843 82.3597 31.711C83.191 32.579 84.3252 33.0927 85.5259 33.1448C85.9871 33.1569 86.4455 33.0684 86.869 32.8855C87.2926 32.7025 87.6713 32.4295 87.9787 32.0854H88.0488V32.7548C88.0488 34.5371 87.0968 35.4935 85.5609 35.4935C85.0491 35.4811 84.5525 35.3167 84.1344 35.0212C83.7163 34.7256 83.3957 34.3123 83.2133 33.8338L81.431 34.5755C81.767 35.3934 82.3396 36.0924 83.0754 36.5829C83.8112 37.0734 84.6767 37.333 85.5609 37.3284C87.9611 37.3284 89.991 35.9163 89.991 32.4754V24.1104H88.0521V24.8673ZM85.7055 31.3087C84.9985 31.248 84.34 30.9242 83.8602 30.4014C83.3804 29.8786 83.1142 29.1948 83.1142 28.4852C83.1142 27.7755 83.3804 27.0917 83.8602 26.5689C84.34 26.0461 84.9985 25.7223 85.7055 25.6616C86.058 25.6787 86.4034 25.7667 86.7211 25.9201C87.0388 26.0736 87.3224 26.2894 87.555 26.5548C87.7875 26.8202 87.9643 27.1296 88.0747 27.4647C88.1851 27.7999 88.227 28.1538 88.1978 28.5054C88.2253 28.8548 88.182 29.2061 88.0706 29.5383C87.9591 29.8705 87.7816 30.1768 87.5489 30.4387C87.3162 30.7007 87.033 30.913 86.7162 31.0629C86.3994 31.2128 86.0557 31.2971 85.7055 31.3109V31.3087ZM112.414 19.1709H107.516V32.8643H109.56V27.6761H112.414C112.992 27.7069 113.57 27.6197 114.112 27.4198C114.655 27.22 115.152 26.9117 115.571 26.5137C115.991 26.1157 116.325 25.6365 116.554 25.1051C116.782 24.5737 116.9 24.0014 116.9 23.423C116.9 22.8446 116.782 22.2722 116.554 21.7408C116.325 21.2095 115.991 20.7302 115.571 20.3322C115.152 19.9343 114.655 19.6259 114.112 19.4261C113.57 19.2262 112.992 19.139 112.414 19.1698V19.1709ZM112.467 25.7711H109.56V21.0759H112.467C112.779 21.0692 113.09 21.1249 113.381 21.2398C113.671 21.3547 113.936 21.5265 114.16 21.7451C114.383 21.9637 114.56 22.2248 114.682 22.5129C114.803 22.801 114.865 23.1104 114.865 23.423C114.865 23.7355 114.803 24.0449 114.682 24.3331C114.56 24.6212 114.383 24.8822 114.16 25.1008C113.936 25.3194 113.671 25.4912 113.381 25.6061C113.09 25.7211 112.779 25.7768 112.467 25.77V25.7711ZM125.1 23.8047C124.354 23.7612 123.611 23.9362 122.963 24.3085C122.315 24.6807 121.79 25.234 121.452 25.9004L123.267 26.6584C123.447 26.3275 123.72 26.0562 124.051 25.8778C124.383 25.6994 124.76 25.6216 125.135 25.6539C125.653 25.6043 126.17 25.7619 126.573 26.0921C126.976 26.4223 127.231 26.8984 127.284 27.4165V27.5567C126.628 27.2082 125.896 27.0268 125.153 27.0287C123.197 27.0287 121.209 28.1034 121.209 30.1114C121.228 30.5343 121.332 30.9491 121.514 31.3312C121.696 31.7134 121.953 32.055 122.27 32.3361C122.586 32.6171 122.956 32.8317 123.357 32.9672C123.758 33.1027 124.183 33.1564 124.605 33.125C125.12 33.1553 125.633 33.047 126.092 32.8113C126.551 32.5757 126.938 32.2214 127.213 31.7853H127.283V32.8424H129.255V27.5907C129.257 25.1598 127.443 23.8036 125.1 23.8036V23.8047ZM124.853 31.3098C124.183 31.3098 123.25 30.9757 123.25 30.1475C123.25 29.0904 124.412 28.6851 125.417 28.6851C126.067 28.6688 126.71 28.8269 127.279 29.143C127.204 29.7357 126.917 30.2813 126.471 30.6793C126.025 31.0773 125.451 31.3008 124.853 31.3087V31.3098ZM136.446 24.1005L134.103 30.038H134.032L131.6 24.1005H129.399L133.045 32.3987L130.964 37.0151H133.096L138.719 24.1005H136.446ZM118.034 32.8643H120.076V19.1709H118.032L118.034 32.8643Z" fill="white"/>
<path d="M12.3196 8.25746C11.9612 8.68737 11.7802 9.23784 11.8135 9.7966V34.0241C11.7799 34.5829 11.961 35.1335 12.3196 35.5633L12.4007 35.6422L25.9747 22.0703V21.7504L12.4007 8.17749L12.3196 8.25746Z" fill="url(#paint0_linear)"/>
<path d="M30.4967 26.5971L25.9746 22.0706V21.7507L30.5 17.2253L30.6019 17.2845L35.9621 20.3299C37.4957 21.1997 37.4957 22.6227 35.9621 23.4926L30.6019 26.538L30.4967 26.5971Z" fill="url(#paint1_linear)"/>
<path d="M30.5995 26.5378L25.9744 21.9094L12.3193 35.5634C12.6314 35.8387 13.03 35.9961 13.446 36.0083C13.862 36.0205 14.2691 35.8868 14.5968 35.6303L30.5995 26.5378Z" fill="url(#paint2_linear)"/>
<path d="M30.5995 17.2833L14.5968 8.19081C14.2691 7.93431 13.862 7.80057 13.446 7.81278C13.03 7.82498 12.6314 7.98236 12.3193 8.25763L25.9744 21.9094L30.5995 17.2833Z" fill="url(#paint3_linear)"/>
<path opacity="0.2" d="M30.4982 26.4363L14.5973 35.4707C14.2827 35.7097 13.899 35.8401 13.5039 35.8423C13.1087 35.8445 12.7236 35.7183 12.4064 35.4827L12.3242 35.5638L12.4053 35.6437C12.7225 35.8793 13.1076 36.0055 13.5028 36.0033C13.8979 36.0012 14.2816 35.8708 14.5962 35.6317L30.5989 26.5393L30.4982 26.4363Z" fill="black"/>
<path opacity="0.12" d="M12.3196 35.4039C11.961 34.9741 11.7799 34.4235 11.8135 33.8647V34.0258C11.7808 34.5828 11.9618 35.1313 12.3196 35.5594L12.4018 35.4784L12.3196 35.4039Z" fill="black"/>
<path opacity="0.12" d="M35.9601 23.3335L30.498 26.437L30.5999 26.5389L35.9601 23.4935C36.2757 23.3564 36.5487 23.137 36.7507 22.8584C36.9526 22.5798 37.0761 22.252 37.1081 21.9094C37.0409 22.2198 36.9021 22.5102 36.7028 22.7575C36.5035 23.0047 36.2492 23.202 35.9601 23.3335Z" fill="black"/>
<path opacity="0.25" d="M14.5979 8.35192L35.9597 20.4898C36.2486 20.6209 36.5029 20.8176 36.7024 21.0642C36.9019 21.3109 37.0411 21.6007 37.1089 21.9106C37.0766 21.5683 36.9531 21.241 36.7511 20.9627C36.5492 20.6844 36.2762 20.4655 35.9608 20.3288L14.599 8.19089C13.0654 7.32108 11.8154 8.04409 11.8154 9.79685V9.95789C11.8143 8.20513 13.0665 7.48211 14.5979 8.35192Z" fill="white"/>
<path d="M47.0242 15.6354H46.2168V13.4335H46.8587C47.1742 13.1004 47.4126 12.7021 47.557 12.2667C47.7015 11.8313 47.7484 11.3694 47.6946 10.9139V7.66797H52.0831V13.4335H52.817V15.6354H52.0097V14.2408H47.0242V15.6354ZM48.5425 10.9182C48.5964 11.8022 48.3785 12.6814 47.9181 13.4378H51.2374V8.47533H48.5425V10.9182Z" fill="white" stroke="white" stroke-width="0.2" stroke-miterlimit="10"/>
<path d="M59.4038 13.3922C58.7638 14.0298 57.8972 14.3879 56.9937 14.3879C56.0903 14.3879 55.2237 14.0298 54.5837 13.3922C53.9617 12.733 53.6152 11.861 53.6152 10.9547C53.6152 10.0485 53.9617 9.17646 54.5837 8.5173C54.8999 8.20026 55.2755 7.94871 55.6891 7.77707C56.1026 7.60544 56.546 7.51709 56.9937 7.51709C57.4415 7.51709 57.8849 7.60544 58.2984 7.77707C58.712 7.94871 59.0876 8.20026 59.4038 8.5173C60.0265 9.17523 60.3735 10.0467 60.3735 10.9525C60.3735 11.8584 60.0265 12.7299 59.4038 13.3878V13.3922ZM55.207 12.8444C55.681 13.3173 56.3232 13.5828 56.9926 13.5828C57.6621 13.5828 58.3043 13.3173 58.7783 12.8444C59.2485 12.3287 59.5091 11.6559 59.5091 10.958C59.5091 10.2601 59.2485 9.58737 58.7783 9.07162C58.3043 8.5988 57.6621 8.33327 56.9926 8.33327C56.3232 8.33327 55.681 8.5988 55.207 9.07162C54.7375 9.58771 54.4774 10.2603 54.4774 10.958C54.4774 11.6557 54.7375 12.3283 55.207 12.8444Z" fill="white" stroke="white" stroke-width="0.2" stroke-miterlimit="10"/>
<path d="M64.6225 14.3881C64.1703 14.3962 63.7211 14.3128 63.302 14.1429C62.8828 13.973 62.5023 13.7201 62.1834 13.3994C61.8644 13.0787 61.6136 12.6968 61.446 12.2767C61.2784 11.8567 61.1974 11.407 61.2079 10.9549C61.1974 10.5027 61.2784 10.0531 61.446 9.63298C61.6136 9.2129 61.8644 8.83104 62.1834 8.51035C62.5023 8.18967 62.8828 7.93677 63.302 7.76687C63.7211 7.59696 64.1703 7.51355 64.6225 7.52164C65.0791 7.50787 65.5329 7.59725 65.9502 7.78312C66.3675 7.969 66.7374 8.24658 67.0326 8.59521L66.4443 9.16486C66.2273 8.89158 65.9487 8.67351 65.6314 8.52843C65.314 8.38336 64.9668 8.3154 64.6182 8.33011C64.2827 8.32227 63.949 8.38249 63.6374 8.50713C63.3258 8.63177 63.0427 8.81825 62.8051 9.05531C62.3296 9.57364 62.0658 10.2515 62.0658 10.9549C62.0658 11.6583 62.3296 12.3361 62.8051 12.8544C63.0427 13.0915 63.3258 13.278 63.6374 13.4026C63.949 13.5272 64.2827 13.5875 64.6182 13.5796C65.0047 13.5813 65.3867 13.4965 65.7363 13.3314C66.0858 13.1663 66.394 12.9251 66.6382 12.6255L67.2254 13.2126C66.9179 13.5798 66.532 13.8733 66.096 14.0715C65.6342 14.2844 65.131 14.3925 64.6225 14.3881Z" fill="white" stroke="white" stroke-width="0.2" stroke-miterlimit="10"/>
<path d="M70.6455 14.2411H69.8009V8.47558H67.9648V7.66821H72.4815V8.47558H70.6455V14.2411Z" fill="white" stroke="white" stroke-width="0.2" stroke-miterlimit="10"/>
<path d="M78.2818 7.66821L75.794 13.2124C75.6941 13.5445 75.4922 13.8368 75.2169 14.0478C74.9417 14.2587 74.607 14.3777 74.2603 14.3879C74.0336 14.3832 73.8101 14.3333 73.603 14.2411L73.8221 13.4611C73.9554 13.5379 74.1064 13.5787 74.2603 13.5794C74.4195 13.5907 74.5783 13.5525 74.7149 13.4699C74.8479 13.3581 74.9504 13.2145 75.0129 13.0525L75.2517 12.5288L73.0498 7.66821H74.0357L75.6603 11.441H75.6965L77.2893 7.66821H78.2818Z" fill="white" stroke="white" stroke-width="0.2" stroke-miterlimit="10"/>
<path d="M79.2383 14.2411V7.66821H83.9926V14.2411H83.148V8.47558H80.0807V14.2411H79.2383Z" fill="white" stroke="white" stroke-width="0.2" stroke-miterlimit="10"/>
<path d="M85.4971 14.2411V7.66821H86.3362V10.4858H89.6226V7.66821H90.4672V14.2411H89.6226V11.2756H86.3362V14.2411H85.4971Z" fill="white" stroke="white" stroke-width="0.2" stroke-miterlimit="10"/>
<path d="M97.354 13.3922C96.714 14.0298 95.8474 14.3879 94.9439 14.3879C94.0405 14.3879 93.1739 14.0298 92.5339 13.3922C91.9119 12.733 91.5654 11.861 91.5654 10.9547C91.5654 10.0485 91.9119 9.17646 92.5339 8.5173C92.8501 8.20026 93.2257 7.94871 93.6393 7.77707C94.0528 7.60544 94.4962 7.51709 94.9439 7.51709C95.3917 7.51709 95.8351 7.60544 96.2486 7.77707C96.6622 7.94871 97.0378 8.20026 97.354 8.5173C97.9767 9.17523 98.3236 10.0467 98.3236 10.9525C98.3236 11.8584 97.9767 12.7299 97.354 13.3878V13.3922ZM93.1583 12.8444C93.6321 13.3172 94.2741 13.5827 94.9434 13.5827C95.6127 13.5827 96.2547 13.3172 96.7285 12.8444C97.1986 12.3287 97.4593 11.6559 97.4593 10.958C97.4593 10.2601 97.1986 9.58737 96.7285 9.07162C96.2547 8.59886 95.6127 8.33336 94.9434 8.33336C94.2741 8.33336 93.6321 8.59886 93.1583 9.07162C92.6881 9.58737 92.4275 10.2601 92.4275 10.958C92.4275 11.6559 92.6881 12.3287 93.1583 12.8444Z" fill="white" stroke="white" stroke-width="0.2" stroke-miterlimit="10"/>
<path d="M101.776 14.2413V7.66844H104.154C104.648 7.66078 105.126 7.84314 105.489 8.17784C105.671 8.33675 105.817 8.53382 105.915 8.75512C106.012 8.97642 106.061 9.21653 106.055 9.45845C106.061 9.7524 105.976 10.0409 105.811 10.2844C105.651 10.5227 105.426 10.7107 105.164 10.8267V10.8629C105.481 10.9683 105.759 11.1663 105.963 11.4314C106.17 11.6998 106.28 12.0303 106.275 12.3691C106.281 12.6222 106.231 12.8734 106.128 13.1049C106.026 13.3365 105.874 13.5426 105.683 13.7089C105.301 14.0589 104.8 14.2495 104.283 14.2413H101.776ZM102.62 10.486H104.154C104.297 10.4921 104.439 10.467 104.572 10.4123C104.704 10.3576 104.823 10.2747 104.92 10.1694C105.102 9.98627 105.205 9.73913 105.207 9.48105C105.208 9.22298 105.109 8.97456 104.929 8.78912C104.837 8.6859 104.722 8.60432 104.595 8.55018C104.467 8.49603 104.329 8.47064 104.191 8.47581H102.62V10.486ZM102.62 13.4339H104.319C104.468 13.4388 104.615 13.4108 104.752 13.3519C104.888 13.293 105.01 13.2047 105.109 13.0932C105.3 12.8925 105.408 12.6267 105.411 12.3494C105.403 12.0577 105.279 11.7812 105.067 11.5801C104.856 11.379 104.574 11.2696 104.282 11.2758H102.62V13.4339Z" fill="white" stroke="white" stroke-width="0.2" stroke-miterlimit="10"/>
<defs>
<linearGradient id="paint0_linear" x1="24.7707" y1="189.829" x2="3.03591" y2="184.051" gradientUnits="userSpaceOnUse">
<stop stop-color="#00A0FF"/>
<stop offset="0.007" stop-color="#00A1FF"/>
<stop offset="0.26" stop-color="#00BEFF"/>
<stop offset="0.512" stop-color="#00D2FF"/>
<stop offset="0.76" stop-color="#00DFFF"/>
<stop offset="1" stop-color="#00E3FF"/>
</linearGradient>
<linearGradient id="paint1_linear" x1="37.9588" y1="177.464" x2="11.4399" y2="177.464" gradientUnits="userSpaceOnUse">
<stop stop-color="#FFE000"/>
<stop offset="0.409" stop-color="#FFBD00"/>
<stop offset="0.775" stop-color="#FFA500"/>
<stop offset="1" stop-color="#FF9C00"/>
</linearGradient>
<linearGradient id="paint2_linear" x1="28.0769" y1="175.074" x2="10.622" y2="145.686" gradientUnits="userSpaceOnUse">
<stop stop-color="#FF3A44"/>
<stop offset="1" stop-color="#C31162"/>
</linearGradient>
<linearGradient id="paint3_linear" x1="8.88266" y1="199.297" x2="16.6817" y2="186.179" gradientUnits="userSpaceOnUse">
<stop stop-color="#32A071"/>
<stop offset="0.068" stop-color="#2DA771"/>
<stop offset="0.476" stop-color="#15CF74"/>
<stop offset="0.801" stop-color="#06E775"/>
<stop offset="1" stop-color="#00F076"/>
</linearGradient>
</defs>
</svg>
