<svg width="33" height="33" viewBox="0 0 33 33" fill="none" xmlns="http://www.w3.org/2000/svg">
<path fill-rule="evenodd" clip-rule="evenodd" d="M27.6625 11.9556V5.18472H20.9343L16.2444 0.439026L11.5544 5.1141H4.75564V11.8919L0 16.6426L4.82427 21.3843V28.1661H11.5544L16.2444 32.9009L20.9343 28.1552H27.7291V21.4529L32.4917 16.7073L27.6625 11.9556ZM4.14788 18.064L3.05968 16.9788C3.01883 16.9391 2.98636 16.8917 2.96419 16.8392C2.94201 16.7868 2.93059 16.7304 2.93059 16.6734C2.93059 16.6165 2.94201 16.5601 2.96419 16.5077C2.98636 16.4552 3.01883 16.4077 3.05968 16.3681L4.21353 15.2182C4.2457 15.1868 4.28727 15.1668 4.33189 15.1612C4.37652 15.1556 4.42173 15.1648 4.46064 15.1874C4.49954 15.2099 4.52999 15.2446 4.54733 15.2861C4.56468 15.3276 4.56797 15.3736 4.5567 15.4171L4.62533 17.8581C4.62533 18.1297 4.35378 18.2013 4.15186 18.0571L4.14788 18.064ZM23.6538 7.14824H25.2165C25.4154 7.14824 25.69 7.28253 25.6253 7.55308V9.1804C25.6253 9.37934 25.3538 9.45196 25.2822 9.31469L23.5245 7.55706C23.4852 7.52937 23.4559 7.48969 23.4409 7.44395C23.426 7.39821 23.4263 7.34887 23.4417 7.3033C23.4572 7.25774 23.487 7.2184 23.5266 7.19117C23.5663 7.16393 23.6137 7.15027 23.6618 7.15222L23.6538 7.14824ZM14.9393 4.64161L16.0245 3.56237C16.2235 3.4251 16.498 3.35646 16.6353 3.56237L17.7891 4.6436C17.8193 4.68066 17.8382 4.72556 17.8437 4.77302C17.8492 4.82048 17.841 4.86852 17.8201 4.91148C17.7992 4.95444 17.7664 4.99053 17.7257 5.0155C17.685 5.04047 17.6379 5.05328 17.5902 5.05242H15.1562C15.1057 5.06074 15.0539 5.05299 15.0081 5.03025C14.9623 5.00752 14.9249 4.97096 14.901 4.92575C14.8771 4.88054 14.8681 4.82897 14.8751 4.77833C14.8822 4.7277 14.905 4.68056 14.9403 4.6436L14.9393 4.64161ZM6.64755 9.1048V7.61276C6.7132 7.34121 6.84648 7.13929 7.12102 7.13929H8.68667C8.7355 7.1344 8.78466 7.14456 8.82755 7.16839C8.87045 7.19223 8.90504 7.22861 8.92668 7.27265C8.94833 7.31669 8.95599 7.3663 8.94865 7.41482C8.94131 7.46334 8.91931 7.50846 8.88561 7.54413L7.11704 9.30574C7.07542 9.33663 7.02648 9.35614 6.97502 9.36236C6.92357 9.36859 6.87138 9.36131 6.8236 9.34123C6.77581 9.32115 6.73408 9.28898 6.70252 9.24787C6.67095 9.20676 6.65063 9.15815 6.64357 9.1068L6.64755 9.1048ZM8.82095 26.2732H7.27122C7.21689 26.2756 7.16266 26.2667 7.11198 26.247C7.06129 26.2273 7.01526 26.1973 6.97681 26.1588C6.93835 26.1204 6.90832 26.0743 6.88863 26.0237C6.86893 25.973 6.86 25.9187 6.8624 25.8644L6.79675 24.3157C6.79186 24.2668 6.80202 24.2177 6.82585 24.1748C6.84969 24.1319 6.88606 24.0973 6.93011 24.0757C6.97415 24.054 7.02376 24.0464 7.07228 24.0537C7.1208 24.061 7.16592 24.083 7.20159 24.1167L9.03879 25.8783C9.06546 25.9169 9.08125 25.9619 9.0845 26.0086C9.08776 26.0553 9.07835 26.1021 9.05728 26.1439C9.0362 26.1858 9.00424 26.2211 8.96475 26.2463C8.92527 26.2716 8.87971 26.2857 8.83289 26.2872L8.82095 26.2732ZM17.5902 28.6456L16.502 29.7308C16.4665 29.7783 16.4204 29.8169 16.3674 29.8435C16.3144 29.8701 16.2559 29.884 16.1966 29.884C16.1373 29.884 16.0788 29.8701 16.0258 29.8435C15.9728 29.8169 15.9267 29.7783 15.8912 29.7308L14.7374 28.6456C14.7091 28.6131 14.6897 28.5738 14.6813 28.5316C14.6728 28.4894 14.6754 28.4457 14.689 28.4048C14.7026 28.364 14.7265 28.3273 14.7586 28.2986C14.7906 28.2698 14.8296 28.2499 14.8717 28.2407H17.3883C17.4371 28.2359 17.4862 28.246 17.5291 28.2698C17.572 28.2937 17.6066 28.3301 17.6283 28.3741C17.6499 28.4181 17.6576 28.4677 17.6502 28.5163C17.6429 28.5648 17.6209 28.6099 17.5872 28.6456H17.5902ZM18.8127 25.933H13.3906C13.0358 25.9812 12.6745 25.9381 12.341 25.8077C12.0075 25.6774 11.7128 25.4641 11.4847 25.188L7.54277 21.25C7.24688 20.9946 7.01776 20.6709 6.87528 20.3069C6.7328 19.9429 6.68126 19.5496 6.72513 19.1612V13.8077C6.71451 13.1041 6.98229 12.4249 7.47016 11.9178L11.618 7.79778C11.8416 7.57881 12.108 7.40843 12.4005 7.29734C12.6931 7.18624 13.0054 7.13684 13.318 7.15222H18.8883C19.2269 7.10274 19.5726 7.13972 19.8931 7.25972C20.2136 7.37972 20.4986 7.57884 20.7215 7.83856L24.7351 11.8382C24.9996 12.064 25.2101 12.3462 25.351 12.6642C25.4918 12.9822 25.5594 13.3278 25.5487 13.6754V19.5123C25.5961 19.853 25.5446 20.2002 25.4004 20.5125C25.2561 20.8248 25.0252 21.0891 24.7351 21.2739L20.9274 25.1164C20.663 25.4059 20.335 25.63 19.9692 25.7712C19.6035 25.9124 19.21 25.9668 18.8196 25.9301L18.8127 25.933ZM25.6761 25.6615C25.6104 25.8604 25.4771 26.135 25.2026 26.135H23.6538C23.6044 26.1416 23.5542 26.1326 23.51 26.1094C23.4659 26.0863 23.4301 26.0499 23.4075 26.0055C23.3849 25.9611 23.3766 25.9107 23.3839 25.8614C23.3911 25.812 23.4135 25.7662 23.4479 25.7301L25.2165 23.9725C25.2489 23.9302 25.2933 23.8987 25.3439 23.8821C25.3945 23.8655 25.449 23.8646 25.5001 23.8794C25.5513 23.8942 25.5968 23.9242 25.6306 23.9653C25.6645 24.0064 25.6852 24.0567 25.69 24.1098V25.6685L25.6761 25.6615ZM28.124 18.07C27.9897 18.2073 27.7152 18.07 27.7808 17.9327V15.4261C27.7122 15.1545 28.0554 15.0829 28.1896 15.2272L29.2778 16.3124C29.4121 16.5113 29.4768 16.7858 29.2778 16.9201L28.121 18.074L28.124 18.07Z" fill="white"/>
<path fill-rule="evenodd" clip-rule="evenodd" d="M23.3137 20.6385L16.4503 8.62064C16.1758 8.14716 15.764 8.14716 15.4198 8.62064L8.75937 20.5739C8.62509 20.9171 8.75937 21.3189 9.37409 21.3189H22.7647C23.2382 21.3189 23.5097 21.12 23.3068 20.6326L23.3137 20.6385ZM21.4805 19.8895H11.6917C11.6163 19.8995 11.5395 19.8882 11.4701 19.857C11.4006 19.8257 11.3414 19.7756 11.2989 19.7124C11.2564 19.6493 11.2323 19.5755 11.2295 19.4994C11.2267 19.4233 11.2452 19.3479 11.2829 19.2818L16.1758 10.6051C16.2106 10.5355 16.2641 10.4771 16.3302 10.4362C16.3964 10.3953 16.4726 10.3737 16.5503 10.3737C16.6281 10.3737 16.7043 10.3953 16.7704 10.4362C16.8366 10.4771 16.89 10.5355 16.9248 10.6051L21.8864 19.3474C22.0236 19.6906 21.8207 19.8895 21.4815 19.8895H21.4805Z" fill="white"/>
<path fill-rule="evenodd" clip-rule="evenodd" d="M20.7978 18.5328L17.196 12.0952C17.1673 12.0491 17.1274 12.0111 17.08 11.9848C17.0326 11.9585 16.9792 11.9446 16.925 11.9446C16.8707 11.9446 16.8174 11.9585 16.7699 11.9848C16.7225 12.0111 16.6826 12.0491 16.6539 12.0952L13.0521 18.4752C13.0322 18.5237 13.0236 18.5761 13.0271 18.6285C13.0306 18.6808 13.0461 18.7316 13.0723 18.7771C13.0985 18.8225 13.1348 18.8613 13.1784 18.8906C13.222 18.9198 13.2717 18.9386 13.3237 18.9456H20.5342C20.8058 18.88 20.943 18.8114 20.8058 18.5408L20.7978 18.5328ZM19.2351 17.379H15.4961C15.3588 17.379 15.2971 17.3133 15.3588 17.1801L17.196 13.9284C17.3333 13.7911 17.4019 13.7911 17.4676 13.9284L19.3734 17.1801C19.442 17.3173 19.3734 17.379 19.2361 17.379H19.2351Z" fill="white"/>
</svg>
