<svg width="170" height="40" viewBox="0 0 170 40" fill="none" xmlns="http://www.w3.org/2000/svg">
<path fill-rule="evenodd" clip-rule="evenodd" d="M34.082 14.197V5.845H25.793L20.013 0L14.233 5.762H5.862V14.114L0 19.958L5.945 25.803V34.155H14.235L20.015 40L25.793 34.155H34.165V25.886L40.029 20.041L34.082 14.197ZM5.113 21.712L3.773 20.375C3.72281 20.3261 3.68291 20.2676 3.65567 20.203C3.62843 20.1385 3.6144 20.0691 3.6144 19.999C3.6144 19.9289 3.62843 19.8595 3.65567 19.795C3.68291 19.7304 3.72281 19.6719 3.773 19.623L5.196 18.203C5.2364 18.1656 5.28788 18.1423 5.34268 18.1366C5.39747 18.131 5.45261 18.1433 5.49978 18.1718C5.54696 18.2002 5.58361 18.2432 5.60421 18.2943C5.62481 18.3454 5.62825 18.4018 5.614 18.455L5.697 21.461C5.697 21.795 5.362 21.879 5.113 21.712ZM29.144 8.26701H31.07C31.32 8.26701 31.655 8.43501 31.57 8.76701V10.767C31.57 11.018 31.235 11.102 31.151 10.934L28.973 8.763C28.9244 8.72894 28.8881 8.68008 28.8696 8.6237C28.8511 8.56733 28.8513 8.50648 28.8702 8.45023C28.8891 8.39398 28.9257 8.34535 28.9745 8.31161C29.0233 8.27786 29.0817 8.26081 29.141 8.263L29.144 8.26701ZM18.423 5.178L19.763 3.842C20.015 3.675 20.349 3.592 20.516 3.842L21.939 5.178C21.977 5.22356 22.0009 5.27921 22.0078 5.33815C22.0146 5.39709 22.0042 5.45674 21.9776 5.50981C21.9511 5.56288 21.9096 5.60706 21.8584 5.63693C21.8071 5.66681 21.7483 5.68108 21.689 5.678H18.675C18.6147 5.68401 18.554 5.6716 18.5008 5.64242C18.4477 5.61323 18.4047 5.56863 18.3774 5.5145C18.3501 5.46037 18.3399 5.39924 18.348 5.33917C18.3561 5.2791 18.3823 5.22291 18.423 5.178ZM8.206 10.689V8.85101C8.289 8.51801 8.458 8.26701 8.792 8.26701H10.718C10.7783 8.261 10.839 8.2734 10.8922 8.30259C10.9453 8.33178 10.9883 8.37637 11.0156 8.4305C11.0429 8.48463 11.0531 8.54577 11.045 8.60583C11.0369 8.6659 11.0107 8.72209 10.97 8.76701L8.793 10.935C8.74118 10.9731 8.68032 10.997 8.61643 11.0044C8.55254 11.0118 8.48783 11.0024 8.42867 10.9772C8.36951 10.952 8.31795 10.9117 8.27908 10.8605C8.24021 10.8093 8.21537 10.7488 8.207 10.685L8.206 10.689ZM10.886 31.816H8.96C8.89362 31.8187 8.82741 31.8076 8.76554 31.7834C8.70366 31.7592 8.64746 31.7225 8.60049 31.6755C8.55352 31.6285 8.51678 31.5723 8.4926 31.5105C8.46842 31.4486 8.45732 31.3824 8.46 31.316L8.377 29.396C8.37146 29.3359 8.3842 29.2754 8.41356 29.2226C8.44293 29.1699 8.48754 29.1272 8.54157 29.1001C8.5956 29.0731 8.65652 29.0631 8.71637 29.0712C8.77622 29.0794 8.83221 29.1055 8.877 29.146L11.137 31.316C11.304 31.483 11.137 31.816 10.886 31.816ZM21.686 34.74L20.346 36.077C20.3019 36.1354 20.2449 36.1828 20.1794 36.2154C20.1139 36.248 20.0417 36.265 19.9685 36.265C19.8953 36.265 19.8231 36.248 19.7576 36.2154C19.6921 36.1828 19.6351 36.1354 19.591 36.077L18.172 34.735C18.1352 34.6955 18.1097 34.6467 18.0983 34.5939C18.0869 34.5411 18.09 34.4862 18.1072 34.435C18.1244 34.3838 18.1551 34.3382 18.1961 34.303C18.2371 34.2678 18.2868 34.2443 18.34 34.235H21.44C21.5002 34.2292 21.5608 34.2418 21.6138 34.2711C21.6667 34.3004 21.7096 34.345 21.7367 34.399C21.7639 34.4531 21.774 34.5141 21.7659 34.5741C21.7577 34.6341 21.7316 34.6901 21.691 34.735L21.686 34.74ZM23.194 31.399H16.494C16.0572 31.4573 15.6128 31.4037 15.2024 31.2431C14.792 31.0825 14.4292 30.8203 14.148 30.481L9.295 25.635C8.92678 25.3202 8.64227 24.9191 8.4669 24.4674C8.29153 24.0158 8.23075 23.5278 8.29 23.047V16.447C8.28194 16.0161 8.35925 15.5878 8.51749 15.1868C8.67574 14.7859 8.91177 14.4203 9.212 14.111L14.321 9.011C14.5998 8.74953 14.9294 8.54806 15.2892 8.41906C15.6491 8.29006 16.0315 8.23626 16.413 8.261H23.279C23.6957 8.19957 24.1211 8.24384 24.5161 8.38975C24.9112 8.53565 25.2633 8.77851 25.54 9.096L30.482 14.023C30.8062 14.3004 31.0642 14.6468 31.2372 15.0368C31.4102 15.4268 31.4939 15.8505 31.482 16.277V23.459C31.5405 23.8788 31.4773 24.3065 31.3001 24.6915C31.1228 25.0764 30.8389 25.4025 30.482 25.631L25.792 30.392C25.4649 30.7476 25.06 31.0229 24.609 31.1963C24.1581 31.3698 23.6731 31.4367 23.192 31.392L23.194 31.399ZM31.65 31.065C31.568 31.314 31.399 31.649 31.065 31.649H29.141C29.0808 31.6545 29.0204 31.6418 28.9676 31.6124C28.9149 31.5831 28.8722 31.5385 28.8451 31.4844C28.8181 31.4304 28.8081 31.3695 28.8162 31.3096C28.8244 31.2498 28.8505 31.1938 28.891 31.149L31.068 28.977C31.108 28.9249 31.1627 28.886 31.2251 28.8654C31.2875 28.8449 31.3546 28.8436 31.4177 28.8617C31.4809 28.8798 31.5371 28.9166 31.579 28.9671C31.621 29.0176 31.6468 29.0796 31.653 29.145V31.066L31.65 31.065ZM34.666 21.713C34.5 21.879 34.166 21.713 34.246 21.545V18.455C34.162 18.12 34.582 18.037 34.746 18.203L36.086 19.54C36.252 19.79 36.336 20.124 36.086 20.29L34.662 21.711L34.666 21.713ZM28.719 24.887L20.263 10.105C19.928 9.519 19.425 9.519 19.007 10.105L10.8 24.805C10.632 25.222 10.8 25.722 11.554 25.722H28.054C28.64 25.722 28.974 25.472 28.723 24.888L28.719 24.887ZM26.461 23.967H14.404C14.3109 23.9792 14.2162 23.9653 14.1305 23.9267C14.0449 23.888 13.9717 23.8263 13.9193 23.7484C13.8668 23.6704 13.8371 23.5794 13.8335 23.4856C13.83 23.3917 13.8526 23.2987 13.899 23.217L19.931 12.527C20.181 12.109 20.601 12.192 20.853 12.527L26.964 23.299C27.131 23.717 26.881 23.966 26.464 23.966L26.461 23.967ZM25.622 22.298L21.184 14.365C21.1487 14.3079 21.0994 14.2609 21.0407 14.2282C20.9821 14.1955 20.9161 14.1784 20.849 14.1784C20.7819 14.1784 20.7159 14.1955 20.6573 14.2282C20.5986 14.2609 20.5493 14.3079 20.514 14.365L16.077 22.214C16.0514 22.2739 16.0401 22.3389 16.0439 22.4039C16.0478 22.469 16.0667 22.5322 16.0992 22.5887C16.1317 22.6451 16.1768 22.6932 16.2311 22.7292C16.2854 22.7652 16.3473 22.7881 16.412 22.796H25.289C25.624 22.713 25.789 22.63 25.624 22.296L25.622 22.298ZM19.093 20.877C18.925 20.877 18.842 20.793 18.925 20.627L21.187 16.621C21.355 16.453 21.439 16.453 21.521 16.621L23.867 20.627C23.951 20.794 23.867 20.877 23.699 20.877H19.093Z" fill="#DAB177"/>
<path fill-rule="evenodd" clip-rule="evenodd" d="M153.413 13.696V18.538C152.995 15.95 151.32 13.696 147.971 13.696H141.944V22.629H135.916V21.294H140.354V18.203H135.916V16.948H141.277V13.692H131.728V16.948C131.226 14.7773 129.635 13.692 126.956 13.692H120.34V21.875C111.84 25.268 111.917 14.938 119.671 17.2L119.335 13.859C115.148 13.024 111.882 13.859 109.959 17.2C109.621 15.447 108.619 13.777 105.602 13.692H98.9018V22.542H92.8708V21.29H97.3098V18.199H92.8708V16.868H98.2308V13.695H72.9378V20.375L69.6728 13.695H64.8978V22.545H58.6168V21.293H63.0568V18.285H58.6168V16.948H63.8928V13.776H54.4298V21.876C50.9978 23.296 48.2298 23.046 48.2298 19.788C48.2298 17.031 50.8298 16.198 53.9298 17.288L53.5118 13.864C47.9018 12.694 44.0488 14.864 43.9658 20.042C43.9658 24.385 48.6538 27.058 54.4308 25.388V25.721H68.6688V19.458L71.8508 25.721H76.7898V16.786H80.7258V25.721H85.0808V16.868H88.6808V25.72H102.915V16.868H104.255C105.009 16.868 105.595 17.116 105.595 17.953C105.512 18.953 104.674 19.206 103.251 18.953L105.177 25.719H109.696L107.773 20.707C108.204 20.6035 108.604 20.3976 108.939 20.1067C109.273 19.8159 109.533 19.4486 109.696 19.036C109.696 25.885 115.645 26.723 120.333 25.301V25.719H124.433V16.868H125.772C126.78 16.868 127.029 17.452 127.029 17.953C127.114 18.787 126.11 19.206 124.686 18.953L126.695 25.719H130.965L129.125 20.707C129.712 20.6111 130.263 20.3591 130.719 19.9773C131.175 19.5955 131.521 19.0981 131.719 18.537V25.719H148.719C151.065 25.719 152.819 24.048 153.409 21.293V25.719H157.764V16.868H162.044V25.72H166.398V16.868H169.748V13.695L153.413 13.696ZM147.383 22.546H146.044V17.117H147.553C148.388 17.117 148.893 18.037 148.893 19.791C148.976 21.712 148.393 22.546 147.383 22.546Z" fill="#00804D"/>
</svg>
