<svg width="20" height="20" viewBox="0 0 20 20" fill="none" xmlns="http://www.w3.org/2000/svg">
<path d="M9.48791 19.754C9.78191 19.911 10.1509 19.91 10.4449 19.753C18.4569 15.449 19.0259 7.04 19.0189 4.649C19.0181 4.45683 18.9614 4.26905 18.8555 4.10867C18.7496 3.94828 18.5993 3.82224 18.4229 3.746L10.3729 0.18C10.2448 0.12353 10.1063 0.0944483 9.9663 0.0946205C9.8263 0.0947927 9.68788 0.124215 9.55991 0.181L1.56591 3.747C1.3921 3.82329 1.24389 3.94793 1.13893 4.10608C1.03397 4.26422 0.97669 4.44921 0.973906 4.639C0.939906 7.018 1.41891 15.445 9.48791 19.754ZM6.67391 8.293L8.96691 10.586L13.2599 6.293L14.6739 7.707L8.96691 13.414L5.25991 9.707L6.67391 8.293Z" fill="#B9B9B9"/>
</svg>
