<svg width="84" height="84" viewBox="0 0 84 84" fill="none" xmlns="http://www.w3.org/2000/svg">
<circle cx="42" cy="42" r="42" fill="#7DCEA0" fill-opacity="0.5"/>
<path d="M42 10C24.3545 10 10 24.3545 10 42C10 59.6455 24.3545 74 42 74C59.6455 74 74 59.6455 74 42C74 24.3545 59.6455 10 42 10Z" fill="#27AE60"/>
<path d="M58.2189 35.2187L40.8854 52.5517C40.3654 53.0717 39.6827 53.3335 39.0001 53.3335C38.3175 53.3335 37.6349 53.0717 37.1149 52.5517L28.4484 43.8852C27.4054 42.8427 27.4054 41.1572 28.4484 40.1147C29.4908 39.0717 31.1759 39.0717 32.2189 40.1147L39.0001 46.896L54.4484 31.4482C55.4908 30.4052 57.1759 30.4052 58.2189 31.4482C59.2614 32.4907 59.2614 34.1758 58.2189 35.2187Z" fill="#FAFAFA"/>
</svg>
