<svg width="20" height="20" viewBox="0 0 20 20" fill="none" xmlns="http://www.w3.org/2000/svg">
<path d="M10.0007 15.853C10.4321 15.853 10.7817 15.5034 10.7817 15.072C10.7817 14.6407 10.4321 14.291 10.0007 14.291C9.56939 14.291 9.21973 14.6407 9.21973 15.072C9.21973 15.5034 9.56939 15.853 10.0007 15.853Z" fill="#249052"/>
<path d="M12.1799 4.5499H7.82093C7.70633 4.54748 7.59542 4.5905 7.51242 4.66956C7.42942 4.74862 7.38107 4.85731 7.37793 4.9719V13.2119C7.38081 13.3266 7.42907 13.4354 7.51213 13.5145C7.59519 13.5937 7.70625 13.6366 7.82093 13.6339H12.1799C12.2945 13.6363 12.4054 13.5933 12.4884 13.5142C12.5714 13.4352 12.6198 13.3265 12.6229 13.2119V4.9719C12.6198 4.85731 12.5714 4.74862 12.4884 4.66956C12.4054 4.5905 12.2945 4.54748 12.1799 4.5499Z" fill="#249052"/>
<path d="M10 0C8.02219 0 6.08879 0.58649 4.4443 1.6853C2.79981 2.78412 1.51809 4.3459 0.761209 6.17317C0.00433284 8.00043 -0.193701 10.0111 0.192152 11.9509C0.578004 13.8907 1.53041 15.6725 2.92894 17.0711C4.32746 18.4696 6.10929 19.422 8.0491 19.8079C9.98891 20.1937 11.9996 19.9957 13.8268 19.2388C15.6541 18.4819 17.2159 17.2002 18.3147 15.5557C19.4135 13.9112 20 11.9778 20 10C20 7.34784 18.9464 4.8043 17.0711 2.92893C15.1957 1.05357 12.6522 0 10 0V0ZM13.891 14.935C13.891 15.3018 13.7453 15.6536 13.4859 15.9129C13.2266 16.1723 12.8748 16.318 12.508 16.318H7.494C7.3123 16.3181 7.13235 16.2825 6.96445 16.213C6.79654 16.1436 6.64396 16.0417 6.51543 15.9133C6.3869 15.7848 6.28494 15.6323 6.21537 15.4645C6.14581 15.2966 6.11 15.1167 6.11 14.935V5.022C6.10987 4.84021 6.14558 4.66018 6.21509 4.49221C6.28459 4.32424 6.38653 4.17161 6.51508 4.04307C6.64362 3.91453 6.79624 3.81259 6.96421 3.74308C7.13219 3.67358 7.31222 3.63787 7.494 3.638H12.508C12.8748 3.638 13.2266 3.78371 13.4859 4.04307C13.7453 4.30243 13.891 4.65421 13.891 5.021V14.935Z" fill="#249052"/>
</svg>
